<svg version="1.1" id="Layer_1" xmlns="http://www.w3.org/2000/svg" xmlns:xlink="http://www.w3.org/1999/xlink" x="0px" y="0px"
	 width="100%" viewBox="0 0 1784 892" enable-background="new 0 0 1784 892" xml:space="preserve">
<path fill="#000000" opacity="1.000000" stroke="none" 
	d="
M1190.000000,893.000000 
	C793.333313,893.000000 397.166656,893.000000 1.000000,893.000000 
	C1.000000,595.666687 1.000000,298.333344 1.000000,1.000000 
	C595.666687,1.000000 1190.333374,1.000000 1785.000000,1.000000 
	C1785.000000,298.333344 1785.000000,595.666687 1785.000000,893.000000 
	C1586.833374,893.000000 1388.666626,893.000000 1190.000000,893.000000 
M1640.252197,602.743286 
	C1642.977661,598.957764 1645.784058,595.227539 1648.416138,591.378113 
	C1677.295410,549.141113 1694.922241,503.091187 1694.961792,451.331543 
	C1695.067749,312.504547 1694.998779,173.677414 1694.999268,34.850330 
	C1694.999268,33.072647 1694.999390,31.294962 1694.999390,29.000914 
	C1692.424805,29.000914 1690.467651,29.000908 1688.510620,29.000914 
	C1416.522827,29.001492 1144.535156,29.009340 872.547363,28.995735 
	C825.362183,28.993374 778.264832,31.083475 731.278503,35.289738 
	C681.824646,39.716888 632.684875,46.513397 583.929199,55.992146 
	C507.734039,70.805504 433.267883,91.555023 361.387482,121.077744 
	C294.642334,148.491302 231.576706,182.353683 175.572540,228.375931 
	C140.287064,257.372284 109.350792,290.282257 86.324303,330.007050 
	C53.541328,386.563507 42.784061,446.519287 60.117672,510.334778 
	C72.629707,556.399109 97.701790,595.370117 129.631088,630.234253 
	C169.223923,673.466370 216.255325,707.091858 267.101562,735.624634 
	C340.624542,776.882751 419.084564,805.680115 500.417542,827.018616 
	C612.799316,856.503113 727.293945,870.468811 843.293518,872.727112 
	C930.580505,874.426392 1017.455322,869.081787 1103.836426,856.126343 
	C1172.127930,845.883972 1239.352783,831.020386 1305.176636,810.051331 
	C1379.909668,786.243958 1451.557373,755.615723 1517.613647,712.869690 
	C1564.090942,682.793396 1606.159302,647.715210 1640.252197,602.743286 
z"/>
<path fill="#215F9A" opacity="1.000000" stroke="none" 
	d="
M1640.048340,603.034302 
	C1606.159302,647.715210 1564.090942,682.793396 1517.613647,712.869690 
	C1451.557373,755.615723 1379.909668,786.243958 1305.176636,810.051331 
	C1239.352783,831.020386 1172.127930,845.883972 1103.836426,856.126343 
	C1017.455322,869.081787 930.580505,874.426392 843.293518,872.727112 
	C727.293945,870.468811 612.799316,856.503113 500.417542,827.018616 
	C419.084564,805.680115 340.624542,776.882751 267.101562,735.624634 
	C216.255325,707.091858 169.223923,673.466370 129.631088,630.234253 
	C97.701790,595.370117 72.629707,556.399109 60.117672,510.334778 
	C42.784061,446.519287 53.541328,386.563507 86.324303,330.007050 
	C109.350792,290.282257 140.287064,257.372284 175.572540,228.375931 
	C231.576706,182.353683 294.642334,148.491302 361.387482,121.077744 
	C433.267883,91.555023 507.734039,70.805504 583.929199,55.992146 
	C632.684875,46.513397 681.824646,39.716888 731.278503,35.289738 
	C778.264832,31.083475 825.362183,28.993374 872.547363,28.995735 
	C1144.535156,29.009340 1416.522827,29.001492 1688.510620,29.000914 
	C1690.467651,29.000908 1692.424805,29.000914 1694.999390,29.000914 
	C1694.999390,31.294962 1694.999268,33.072647 1694.999268,34.850330 
	C1694.998779,173.677414 1695.067749,312.504547 1694.961792,451.331543 
	C1694.922241,503.091187 1677.295410,549.141113 1648.416138,591.378113 
	C1645.784058,595.227539 1642.977661,598.957764 1640.048340,603.034302 
M1341.780762,635.794983 
	C1341.780762,635.794983 1341.445923,635.500366 1341.373291,634.649536 
	C1341.831543,629.017822 1342.772705,623.372620 1342.615723,617.758118 
	C1342.450195,611.835144 1337.774048,608.909180 1332.973511,612.198608 
	C1327.210449,616.147339 1322.348267,621.495361 1317.487671,626.609436 
	C1316.442871,627.708618 1317.071533,630.398315 1316.929199,632.355347 
	C1320.506226,629.403748 1322.575195,626.208191 1325.107178,623.435303 
	C1326.192017,622.247253 1328.239624,621.938416 1329.849854,621.230103 
	C1330.353149,622.888611 1331.400513,624.591309 1331.270264,626.198425 
	C1330.503418,635.650024 1329.493042,645.082642 1328.504150,654.515259 
	C1327.605957,663.080994 1326.630371,671.638550 1325.669312,680.379395 
	C1335.855957,678.205933 1336.630371,677.401123 1337.764893,668.169495 
	C1337.927246,666.848511 1337.985962,665.514832 1338.093384,664.187134 
	C1339.176270,650.805176 1343.740967,638.811340 1353.311646,629.266479 
	C1356.469604,626.117065 1360.741455,623.844604 1364.868286,621.975891 
	C1368.776855,620.205933 1371.002197,622.623169 1370.848267,626.584412 
	C1370.661499,631.394226 1370.009155,636.188293 1369.495972,640.982483 
	C1368.328735,651.887939 1366.760376,662.766418 1366.072144,673.700989 
	C1365.671631,680.066406 1370.275269,683.114258 1375.498535,679.655029 
	C1381.308838,675.806946 1386.186646,670.444031 1391.036621,665.329224 
	C1392.225220,664.075745 1391.723877,661.219971 1391.999512,659.100769 
	C1387.821045,662.588440 1385.083862,666.286316 1382.019287,669.689575 
	C1381.219849,670.577393 1379.342651,670.939941 1378.078613,670.751221 
	C1377.552856,670.672791 1376.928467,668.478149 1377.046265,667.316528 
	C1377.783691,660.039734 1378.788574,652.790405 1379.569092,645.517517 
	C1380.542603,636.445618 1381.903564,627.370789 1382.098633,618.275818 
	C1382.225464,612.368530 1378.316772,609.874451 1372.618896,611.561340 
	C1368.716064,612.716858 1364.562256,614.360107 1361.568848,616.982056 
	C1354.737183,622.966003 1348.549805,629.685425 1341.780762,635.794983 
M1368.622437,429.096649 
	C1377.313599,394.761475 1377.461548,360.457642 1366.955200,326.544220 
	C1355.843140,290.675781 1333.356567,264.795013 1297.350098,252.274353 
	C1273.453613,243.964676 1248.696045,243.176361 1223.822510,246.958405 
	C1183.189453,253.136734 1153.387817,274.445251 1137.090820,312.375885 
	C1119.683594,352.890228 1119.265625,394.783356 1132.407715,436.454346 
	C1143.478882,471.558746 1166.630859,496.128723 1201.850708,508.373199 
	C1221.531616,515.215393 1241.936401,516.092407 1262.544067,515.024475 
	C1314.843628,512.313965 1354.667114,480.288940 1368.622437,429.096649 
M1049.469482,422.229645 
	C1059.939697,445.523529 1050.906738,469.543579 1027.457520,479.427399 
	C1004.766418,488.991638 981.569336,488.301422 958.677979,480.366119 
	C941.786682,474.510773 931.447205,462.387115 928.678345,444.394073 
	C928.053406,440.332764 927.747742,436.222321 927.303650,432.212097 
	C915.225281,432.212097 903.509033,432.212097 891.855347,432.212097 
	C891.855347,434.951630 891.752625,437.283081 891.870911,439.603271 
	C893.424072,470.071472 907.906067,492.351807 935.815552,504.369629 
	C970.801941,519.434814 1006.767578,519.269104 1042.503784,506.656158 
	C1056.883545,501.580902 1068.952515,492.699524 1077.681152,479.844086 
	C1088.371948,464.098907 1090.040894,446.460205 1088.392212,428.156097 
	C1086.363525,405.630402 1075.231934,389.219177 1055.257202,378.649414 
	C1037.029663,369.004303 1017.375610,363.417450 997.658813,357.931580 
	C981.484680,353.431427 965.164124,349.241180 950.544678,340.546509 
	C943.308228,336.242767 937.877258,330.455261 935.711365,321.955170 
	C930.961121,303.312195 940.169861,285.435730 958.315063,279.060638 
	C978.235474,272.061737 998.231934,272.206238 1017.849121,280.102661 
	C1031.224854,285.486755 1040.890747,294.613434 1043.630127,309.510254 
	C1044.193848,312.576050 1044.336548,315.719299 1044.672852,318.822998 
	C1056.601318,318.822998 1068.179199,318.822998 1081.149658,318.822998 
	C1079.414062,310.187256 1078.670776,301.820862 1076.006348,294.119049 
	C1068.462280,272.312286 1051.807739,259.592010 1030.812988,252.211823 
	C1005.307739,243.246124 979.205750,242.679886 953.061035,248.988678 
	C921.575134,256.586304 900.192871,276.419159 899.215759,312.253204 
	C898.604370,334.676208 905.831299,353.380798 925.263794,366.246918 
	C938.463013,374.986115 953.139954,380.280182 968.058289,385.000458 
	C986.434265,390.814728 1005.023132,395.989563 1023.248718,402.232697 
	C1033.697021,405.811768 1043.246948,411.437378 1049.469482,422.229645 
M503.040192,434.500000 
	C503.040192,460.247101 503.040192,485.994202 503.040192,511.689789 
	C559.526855,511.689789 615.270813,511.689789 671.145752,511.689789 
	C671.145752,501.780731 671.145752,492.184265 671.145752,482.026245 
	C627.013611,482.026245 583.132263,482.026245 539.270752,482.026245 
	C539.270752,451.418030 539.270752,421.374908 539.270752,390.745178 
	C580.010071,390.745178 620.379456,390.745178 660.564819,390.745178 
	C660.564819,380.743256 660.564819,371.334808 660.564819,361.525208 
	C619.916077,361.525208 579.646729,361.525208 539.153687,361.525208 
	C539.153687,333.702972 539.153687,306.296814 539.153687,278.251556 
	C583.276550,278.251556 627.148621,278.251556 671.029663,278.251556 
	C671.029663,268.045715 671.029663,258.482605 671.029663,248.841766 
	C614.932495,248.841766 559.207275,248.841766 503.040192,248.841766 
	C503.040192,310.603180 503.040192,372.051575 503.040192,434.500000 
M336.088165,406.410675 
	C364.941772,440.494171 393.820557,474.556458 422.594788,508.706818 
	C424.603149,511.090424 426.556976,512.136658 429.725677,512.083008 
	C441.554840,511.882660 453.389465,512.013367 465.221954,511.986603 
	C466.413300,511.983856 467.604126,511.755615 469.386169,511.570648 
	C429.705139,465.001984 390.507568,419.000671 351.173492,372.839203 
	C387.562775,331.482086 423.614594,290.508514 460.563324,248.515594 
	C457.620636,248.515594 456.006989,248.515594 454.393372,248.515594 
	C444.394043,248.515594 434.391357,248.664078 424.397156,248.437469 
	C420.749268,248.354736 418.323151,249.404922 415.898682,252.258194 
	C382.990295,290.986481 349.944153,329.597626 316.923828,368.230774 
	C315.572083,369.812286 314.140106,371.325226 311.913177,373.792206 
	C311.913177,331.411926 311.913177,290.222870 311.913177,248.930145 
	C299.666412,248.930145 287.966583,248.930145 276.346375,248.930145 
	C276.346375,336.765839 276.346375,424.186401 276.346375,511.730042 
	C288.234772,511.730042 299.813171,511.730042 311.921967,511.730042 
	C311.921967,467.429626 311.921967,423.398041 311.921967,377.883026 
	C320.461426,387.958221 328.049744,396.911194 336.088165,406.410675 
M769.999207,309.500000 
	C769.999207,376.903320 769.999207,444.306641 769.999207,511.793610 
	C782.139832,511.793610 793.580505,511.793610 805.707031,511.793610 
	C805.707031,434.066498 805.707031,356.547485 805.707031,278.534241 
	C830.811096,278.534241 855.231873,278.534241 879.776245,278.534241 
	C879.776245,268.319885 879.776245,258.607483 879.776245,248.959534 
	C818.076721,248.959534 756.722778,248.959534 695.451050,248.959534 
	C695.451050,258.999603 695.451050,268.587646 695.451050,278.655457 
	C720.343140,278.655457 744.922241,278.655457 769.999207,278.655457 
	C769.999207,288.923645 769.999207,298.711823 769.999207,309.500000 
M1465.900146,323.500031 
	C1465.900146,298.701843 1465.900146,273.903656 1465.900146,248.868576 
	C1453.756836,248.868576 1442.031372,248.868576 1430.302368,248.868576 
	C1430.302368,336.652588 1430.302368,424.083954 1430.302368,511.716797 
	C1483.125122,511.716797 1535.683472,511.716797 1588.362305,511.716797 
	C1588.362305,501.387909 1588.362305,491.348480 1588.362305,480.866882 
	C1547.371704,480.866882 1506.785645,480.866882 1465.900146,480.866882 
	C1465.900146,428.445099 1465.900146,376.472565 1465.900146,323.500031 
M1543.040649,175.625824 
	C1546.524292,192.198929 1550.007935,208.772018 1553.491577,225.345123 
	C1554.640869,224.599197 1554.849731,223.994507 1554.978882,223.373291 
	C1558.360596,207.097244 1561.796875,190.832031 1565.052124,174.530655 
	C1565.645386,171.558884 1566.781860,170.032318 1569.947021,169.431366 
	C1578.435303,167.819702 1586.850586,165.821411 1595.287964,163.945129 
	C1603.418823,162.136993 1611.540894,160.289413 1619.666748,158.459152 
	C1603.241577,153.853470 1586.916504,150.163086 1570.534180,146.747314 
	C1567.094971,146.030243 1565.619385,144.545807 1564.971313,141.092133 
	C1562.733643,129.166687 1560.172119,117.301559 1557.690552,105.422516 
	C1556.646118,100.423210 1555.493652,95.446495 1554.390259,90.459511 
	C1549.951416,107.348564 1546.320190,124.063919 1543.089966,140.856430 
	C1542.369629,144.600616 1540.747803,146.172836 1537.212402,146.789856 
	C1531.976074,147.703690 1526.793701,148.933838 1521.600708,150.085693 
	C1510.517822,152.544006 1499.442871,155.038452 1488.364746,157.518112 
	C1489.123047,158.598129 1489.838745,158.843994 1490.572998,159.006042 
	C1506.155518,162.444412 1521.721802,165.960312 1537.338623,169.234787 
	C1540.679932,169.935379 1542.778442,171.212372 1543.040649,175.625824 
M486.340302,665.804688 
	C484.270416,667.261780 481.893860,670.254700 480.183167,669.913147 
	C472.320374,668.343140 469.642273,674.403687 464.621002,678.968811 
	C473.217438,679.388489 480.935699,679.072571 488.392151,680.320801 
	C496.103180,681.611633 499.957214,677.388306 504.389008,671.944641 
	C499.487701,671.501831 495.133881,671.108459 490.780060,670.715088 
	C501.017975,665.606323 503.507416,656.550171 504.429779,646.512695 
	C504.934357,641.021606 505.757050,635.559814 506.469543,629.816956 
	C514.007385,641.341492 520.896851,652.522644 528.488708,663.204468 
	C532.202820,668.430237 536.838806,673.204346 541.827332,677.228760 
	C544.073669,679.041077 549.151001,680.057861 551.285767,678.743164 
	C556.065979,675.799316 560.047729,671.379211 563.814392,667.086304 
	C564.848083,665.908142 563.971558,663.053894 563.971558,660.968750 
	C553.385498,671.330627 550.464661,671.441772 542.151855,660.045959 
	C534.317017,649.305481 527.153564,638.069763 519.893677,626.922302 
	C519.000610,625.551025 518.567261,623.014832 519.223206,621.639771 
	C523.670837,612.316589 530.030457,604.447021 538.642822,598.625916 
	C544.966064,594.351990 551.742004,592.144714 559.379883,595.225891 
	C560.229492,595.568787 561.812561,595.453735 562.389771,594.880615 
	C565.166077,592.124023 567.713867,589.137329 570.775269,585.754333 
	C561.956177,583.018677 554.329041,583.936951 546.931091,587.704224 
	C536.195862,593.171021 527.729431,601.403625 519.734985,610.171692 
	C515.627686,614.676453 511.738617,619.380310 507.750977,623.994202 
	C507.406250,623.874390 507.061523,623.754639 506.716797,623.634827 
	C508.573242,610.570496 510.429688,597.506226 512.345520,584.024048 
	C493.952484,583.344666 476.618134,585.943481 464.355194,601.549744 
	C456.580597,611.443970 455.571655,622.949646 459.035309,635.748962 
	C462.177856,632.771362 464.555237,630.200317 467.260773,628.040222 
	C470.276855,625.632141 470.804779,623.462158 469.220856,619.624512 
	C465.542053,610.711304 468.230347,601.861694 475.421936,597.606445 
	C482.364136,593.498962 490.042206,592.739136 498.330231,593.148560 
	C496.295807,611.338257 494.611633,629.077393 492.178772,646.713257 
	C491.311584,652.999573 488.629242,659.035400 486.340302,665.804688 
M650.462280,734.001892 
	C663.971558,727.674927 674.143738,717.846313 679.872620,704.094666 
	C683.240356,696.010986 685.867676,687.511047 687.824890,678.968567 
	C692.872314,656.938171 697.365540,634.780701 702.045593,612.666687 
	C702.131592,612.260376 701.788696,611.763306 701.646362,611.310120 
	C689.462708,614.870056 689.461792,614.869873 687.142029,627.052673 
	C687.048706,627.542664 687.038147,628.049377 686.933777,628.536377 
	C683.901184,642.677734 677.868774,655.321228 667.503357,665.531921 
	C662.883911,670.082336 659.769165,669.019226 658.951721,662.597839 
	C657.881958,654.195251 657.685852,645.684631 656.973206,637.232361 
	C656.414856,630.609619 656.048889,623.929810 654.844299,617.414612 
	C653.766113,611.582886 648.988403,609.125793 643.940308,612.175171 
	C639.083008,615.109375 634.909607,619.318726 630.868591,623.396667 
	C629.044006,625.237854 628.390503,628.105469 631.518372,630.212891 
	C633.272949,627.783875 634.640625,625.208191 636.654541,623.322632 
	C638.207031,621.869141 640.536865,620.719238 642.591370,620.594727 
	C643.382874,620.546814 644.716553,623.617432 645.180298,625.426758 
	C645.791931,627.813171 645.898132,630.350891 646.034180,632.833801 
	C646.689819,644.805908 647.234985,656.784180 647.939026,668.753235 
	C648.074280,671.052368 648.479370,673.411255 649.223328,675.583923 
	C650.960876,680.658691 654.806885,682.397766 659.417664,679.611267 
	C663.052795,677.414490 666.406616,674.468628 669.226562,671.273926 
	C673.360474,666.590576 676.905945,661.387939 681.092285,655.894714 
	C681.092285,657.064026 681.197815,657.674622 681.076904,658.236572 
	C677.826660,673.342407 674.885315,688.526917 671.109924,703.501099 
	C669.720459,709.012207 667.045654,714.518494 663.738586,719.158569 
	C657.412415,728.035034 644.835815,730.894775 632.957092,727.317017 
	C631.206726,726.789734 628.561523,726.106995 627.517517,726.956055 
	C624.559265,729.362000 622.216675,732.525024 619.242188,735.821472 
	C630.282410,739.632141 640.079346,738.182129 650.462280,734.001892 
M1135.171509,611.626526 
	C1127.999878,612.558228 1125.133789,616.594543 1124.792603,623.851074 
	C1124.368774,632.865051 1122.052124,641.609558 1117.129395,649.408813 
	C1112.225586,657.178284 1107.296021,665.005859 1098.569580,669.102661 
	C1093.406616,671.526489 1090.898438,669.801208 1091.168823,664.106995 
	C1091.429199,658.620544 1092.057739,653.150696 1092.557983,647.676636 
	C1093.451782,637.897827 1094.754028,628.136658 1095.144165,618.338562 
	C1095.404541,611.798279 1090.592529,608.797729 1085.216553,612.392090 
	C1079.666504,616.102966 1074.968018,621.194946 1070.334473,626.096252 
	C1069.126221,627.374329 1069.546875,630.192322 1069.219360,632.303040 
	C1072.902832,629.303955 1075.136719,626.001587 1077.837402,623.139404 
	C1078.909546,622.003296 1081.016479,621.843628 1082.652344,621.239380 
	C1083.093750,622.762817 1083.976685,624.309692 1083.897095,625.805420 
	C1083.614136,631.123230 1082.988525,636.422363 1082.519653,641.730896 
	C1081.612061,652.007874 1080.331177,662.272339 1079.962280,672.569153 
	C1079.714233,679.498840 1083.908447,682.197021 1090.486450,680.143372 
	C1092.988281,679.362183 1095.699951,678.359009 1097.582031,676.649109 
	C1104.210083,670.627380 1110.529663,664.265320 1116.939209,658.004700 
	C1117.876953,657.088684 1118.667969,656.022461 1120.449829,653.954956 
	C1119.571655,661.114563 1118.635498,666.704712 1118.256592,672.332275 
	C1117.737305,680.043640 1121.970703,682.913086 1128.897583,679.473267 
	C1136.177734,675.857971 1140.852295,669.513184 1144.686768,662.602356 
	C1145.281128,661.531189 1144.455933,659.672424 1144.134277,656.824585 
	C1139.509155,662.975281 1137.832642,669.747192 1129.685791,671.374268 
	C1129.989624,667.054077 1129.998535,663.583984 1130.512451,660.190308 
	C1132.854004,644.727417 1135.367920,629.290527 1137.676636,613.822998 
	C1137.786987,613.083374 1136.535645,612.140564 1135.171509,611.626526 
M1051.933350,599.581238 
	C1053.351196,592.420715 1054.146973,585.063843 1056.330078,578.144775 
	C1059.769897,567.242371 1067.972778,562.850098 1079.274414,564.639099 
	C1080.682251,564.862000 1082.683594,565.207397 1083.521240,564.476868 
	C1086.793213,561.623718 1089.707764,558.360779 1093.442993,554.548279 
	C1080.390625,552.576416 1070.026123,555.410706 1061.230469,563.374512 
	C1050.891113,572.736145 1044.219849,584.419312 1042.054565,598.112366 
	C1039.509033,614.211487 1037.821411,630.452820 1036.032227,646.662354 
	C1035.029297,655.748413 1034.227173,664.886169 1033.996582,674.017334 
	C1033.849243,679.845886 1037.726074,682.304871 1043.016113,680.104492 
	C1050.518921,676.983521 1055.977173,671.390991 1059.440063,664.106506 
	C1060.210205,662.486267 1059.386230,660.108093 1059.296265,658.078918 
	C1058.787476,658.097656 1058.278687,658.116394 1057.769897,658.135132 
	C1054.886963,663.176025 1052.859985,669.010071 1044.928711,671.735168 
	C1045.563599,647.079102 1049.623169,623.851135 1051.933350,599.581238 
M1255.027954,672.234985 
	C1259.043945,679.375793 1264.430298,682.388000 1272.378296,680.461670 
	C1277.233032,679.284973 1282.364868,677.256287 1286.179565,674.147095 
	C1299.232422,663.508484 1307.134521,649.754578 1307.547729,632.569885 
	C1307.724121,625.237671 1307.251465,617.438049 1299.806519,613.242981 
	C1292.202271,608.958130 1284.649414,611.059937 1277.629639,615.273926 
	C1275.232300,616.713013 1272.875854,618.465576 1271.045654,620.552734 
	C1267.335205,624.783997 1263.485840,629.034302 1260.605957,633.825134 
	C1253.595825,645.487488 1250.625610,657.993896 1255.027954,672.234985 
M1018.598389,630.650818 
	C1018.487732,629.489990 1018.395996,628.327087 1018.263550,627.168701 
	C1016.770386,614.113525 1008.375977,608.022583 995.928772,612.233032 
	C990.345215,614.121704 984.823730,617.825623 980.697266,622.084778 
	C968.186401,634.997986 961.282166,650.274658 964.987488,668.778748 
	C966.488403,676.274048 971.104858,680.217102 978.352661,680.768127 
	C985.731384,681.329041 992.150818,678.716370 997.617859,673.982056 
	C1010.532410,662.798523 1018.275818,648.965088 1018.598389,630.650818 
M806.895691,650.467651 
	C806.883789,656.420288 806.140564,662.484802 807.029846,668.299622 
	C808.391785,677.204468 814.421387,681.568359 823.370178,680.721130 
	C827.080505,680.369812 830.961670,679.262085 834.258606,677.532837 
	C851.557556,668.459229 863.365479,643.778625 859.947266,624.523865 
	C858.297607,615.231201 852.056335,610.372314 842.585632,611.138733 
	C835.448914,611.716370 829.589233,615.103821 824.564514,619.960266 
	C816.013306,628.225159 809.865479,637.959534 806.895691,650.467651 
M753.954102,621.800232 
	C757.236389,621.800232 760.518677,621.800232 764.066895,621.800232 
	C763.484497,627.058716 762.845276,631.670532 762.485779,636.304016 
	C761.573486,648.062988 760.320496,659.824097 760.126282,671.599548 
	C760.011963,678.532593 766.323303,682.918396 772.591187,680.177795 
	C778.020569,677.803833 782.750244,673.599854 787.338196,669.677307 
	C788.636536,668.567261 788.352356,665.606201 788.793945,663.494080 
	C788.336243,663.382019 787.878601,663.269958 787.420959,663.157959 
	C785.795471,665.019592 784.485413,667.412598 782.466309,668.611145 
	C779.814026,670.185425 776.234192,672.116333 773.759338,671.412292 
	C772.038391,670.922607 770.521973,666.219055 770.627319,663.463562 
	C770.937988,655.331726 772.073608,647.229675 772.938782,639.121521 
	C773.548584,633.406982 774.243774,627.701660 774.922913,621.800354 
	C780.392883,621.800354 785.284119,621.254211 790.001892,621.926147 
	C797.379272,622.976929 801.077820,618.536865 805.647644,612.936035 
	C795.196960,612.936035 785.673340,612.936035 775.965210,612.936035 
	C776.450012,607.305664 776.883850,602.267517 777.332153,597.061157 
	C766.966309,599.131409 766.981384,599.133606 765.668274,608.196655 
	C765.439392,609.776184 765.022522,611.328491 764.716797,612.778015 
	C756.765320,613.153870 753.991150,614.830200 750.086121,621.634949 
	C751.221619,621.697144 752.154419,621.748291 753.954102,621.800232 
M1167.075073,603.763000 
	C1166.719604,606.702087 1166.364258,609.641174 1165.941040,613.140747 
	C1158.305786,611.236572 1154.728027,616.094727 1150.348022,621.927002 
	C1155.832153,621.927002 1160.338013,621.927002 1165.079224,621.927002 
	C1164.478271,627.226685 1163.821045,631.839966 1163.455811,636.476196 
	C1162.542236,648.070618 1161.267944,659.668640 1161.103882,671.278809 
	C1160.997925,678.756897 1167.436035,683.014160 1174.248047,679.994934 
	C1179.381470,677.719666 1183.865356,673.721375 1188.149536,669.936646 
	C1189.519897,668.726013 1189.325928,665.744507 1189.847778,663.573242 
	C1189.347290,663.486389 1188.846680,663.399597 1188.346191,663.312744 
	C1186.465210,665.399536 1184.911499,668.025085 1182.611572,669.422546 
	C1180.280884,670.838806 1176.953003,672.036194 1174.561523,671.412842 
	C1173.056396,671.020569 1171.468140,667.030029 1171.634277,664.780457 
	C1172.684570,650.557312 1174.214722,636.369629 1175.622192,621.800354 
	C1181.445679,621.800354 1186.642944,621.286987 1191.695679,621.922852 
	C1198.950439,622.835876 1202.208618,618.185730 1206.540527,612.939941 
	C1196.210327,612.939941 1186.797607,612.939941 1176.969727,612.939941 
	C1177.450684,607.458374 1177.894409,602.402039 1178.344604,597.270813 
	C1170.982910,598.127808 1168.437744,599.450562 1167.075073,603.763000 
M601.634033,647.154968 
	C608.648926,642.405884 614.701965,636.724548 617.672607,628.592529 
	C619.574890,623.385132 621.163696,617.374634 616.378052,613.209167 
	C611.460571,608.928772 605.615234,611.088989 600.484314,613.873230 
	C585.407715,622.054626 572.393921,646.731140 574.082458,663.651123 
	C575.355286,676.406189 584.913513,683.469727 596.690002,679.919617 
	C606.406921,676.990479 613.085510,670.008362 618.354370,661.687866 
	C619.160767,660.414368 618.466919,658.190796 618.466919,656.406677 
	C617.979919,656.347351 617.492859,656.288025 617.005859,656.228699 
	C611.643066,664.846680 606.037048,673.348267 593.961853,670.302734 
	C588.383972,668.895935 585.299377,662.724915 585.345154,655.354248 
	C590.676575,652.712341 595.858398,650.144592 601.634033,647.154968 
M912.528320,670.873352 
	C910.292786,672.708008 908.057190,674.542664 905.662354,676.508057 
	C918.357971,684.277771 936.161621,680.960938 945.018311,669.680786 
	C950.259399,663.005554 950.653564,655.975769 945.599365,649.030518 
	C942.478455,644.742004 938.635437,640.986145 935.262878,636.871277 
	C932.638306,633.668945 929.819641,630.512207 927.844238,626.919067 
	C925.222107,622.149414 927.657166,617.931946 933.017700,618.019714 
	C936.540222,618.077393 940.033752,619.535645 943.554138,620.303101 
	C944.714233,620.556030 946.362732,621.174927 947.023193,620.655029 
	C949.663391,618.576660 952.002686,616.116150 954.836609,613.434326 
	C943.806946,610.002808 933.923035,609.885803 924.876648,616.328125 
	C916.525269,622.275452 915.052124,631.505798 921.076233,639.806030 
	C923.411194,643.023193 926.387634,645.766846 928.878052,648.880981 
	C932.083374,652.888977 935.676880,656.743896 938.049438,661.222961 
	C941.453918,667.650146 937.381897,674.236938 930.178101,673.888977 
	C926.101013,673.692017 921.896973,671.977905 918.177551,670.100403 
	C915.998901,669.000671 914.710327,668.615417 912.528320,670.873352 
M1209.986694,632.362366 
	C1211.384277,630.306702 1212.479126,627.924011 1214.256470,626.278687 
	C1216.442261,624.255249 1219.197510,622.847046 1221.706543,621.172791 
	C1221.963135,623.996216 1222.722046,626.879761 1222.392090,629.632935 
	C1220.669922,644.000122 1218.397461,658.305298 1216.881836,672.691650 
	C1216.096802,680.142395 1220.410034,682.877686 1227.163696,679.527588 
	C1234.584717,675.846497 1239.456421,669.473511 1243.150391,662.252686 
	C1243.671509,661.234497 1242.766968,659.487061 1242.426636,657.525818 
	C1238.960449,662.086243 1236.415161,665.769226 1233.473877,669.102661 
	C1232.584229,670.111023 1230.597290,670.151306 1229.113037,670.635010 
	C1228.759277,669.255371 1227.979736,667.829041 1228.125122,666.504211 
	C1228.778076,660.553833 1229.749634,654.639404 1230.502686,648.698792 
	C1231.799072,638.472900 1233.388550,628.264099 1234.131104,617.995667 
	C1234.577026,611.832458 1230.177612,608.897339 1225.079224,612.234924 
	C1219.234497,616.061096 1214.249023,621.309265 1209.351440,626.384705 
	C1208.314087,627.459839 1209.270508,630.459045 1209.986694,632.362366 
M1234.273315,586.829956 
	C1231.869629,591.672852 1229.465820,596.515747 1226.492676,602.505676 
	C1240.055420,596.620178 1248.160645,586.609192 1246.364624,579.023621 
	C1242.513184,581.517639 1238.705688,583.983215 1234.273315,586.829956 
z"/>
<path fill="#FDFEFE" opacity="1.000000" stroke="none" 
	d="
M1368.469116,429.472076 
	C1354.667114,480.288940 1314.843628,512.313965 1262.544067,515.024475 
	C1241.936401,516.092407 1221.531616,515.215393 1201.850708,508.373199 
	C1166.630859,496.128723 1143.478882,471.558746 1132.407715,436.454346 
	C1119.265625,394.783356 1119.683594,352.890228 1137.090820,312.375885 
	C1153.387817,274.445251 1183.189453,253.136734 1223.822510,246.958405 
	C1248.696045,243.176361 1273.453613,243.964676 1297.350098,252.274353 
	C1333.356567,264.795013 1355.843140,290.675781 1366.955200,326.544220 
	C1377.461548,360.457642 1377.313599,394.761475 1368.469116,429.472076 
M1160.803101,382.535980 
	C1160.907593,384.059448 1161.012207,385.582947 1161.148560,387.982941 
	C1161.777100,403.045380 1164.195068,417.821594 1169.414917,431.969482 
	C1177.674316,454.355469 1191.806030,471.547302 1214.583252,480.431458 
	C1228.179688,485.734680 1242.454712,486.540009 1256.873535,485.988739 
	C1291.187378,484.676849 1319.101807,463.744812 1329.789673,431.153442 
	C1340.885986,397.316193 1341.248535,363.307861 1329.674805,329.641693 
	C1321.119385,304.755371 1305.046997,286.371033 1279.123779,278.341156 
	C1265.096558,273.996124 1250.616455,273.471283 1236.072021,275.051331 
	C1207.024414,278.206970 1186.167114,293.193634 1173.486450,319.321991 
	C1163.919067,339.035645 1160.872437,360.197083 1160.803101,382.535980 
z"/>
<path fill="#FDFEFE" opacity="1.000000" stroke="none" 
	d="
M1049.270996,421.911438 
	C1043.246948,411.437378 1033.697021,405.811768 1023.248718,402.232697 
	C1005.023132,395.989563 986.434265,390.814728 968.058289,385.000458 
	C953.139954,380.280182 938.463013,374.986115 925.263794,366.246918 
	C905.831299,353.380798 898.604370,334.676208 899.215759,312.253204 
	C900.192871,276.419159 921.575134,256.586304 953.061035,248.988678 
	C979.205750,242.679886 1005.307739,243.246124 1030.812988,252.211823 
	C1051.807739,259.592010 1068.462280,272.312286 1076.006348,294.119049 
	C1078.670776,301.820862 1079.414062,310.187256 1081.149658,318.822998 
	C1068.179199,318.822998 1056.601318,318.822998 1044.672852,318.822998 
	C1044.336548,315.719299 1044.193848,312.576050 1043.630127,309.510254 
	C1040.890747,294.613434 1031.224854,285.486755 1017.849121,280.102661 
	C998.231934,272.206238 978.235474,272.061737 958.315063,279.060638 
	C940.169861,285.435730 930.961121,303.312195 935.711365,321.955170 
	C937.877258,330.455261 943.308228,336.242767 950.544678,340.546509 
	C965.164124,349.241180 981.484680,353.431427 997.658813,357.931580 
	C1017.375610,363.417450 1037.029663,369.004303 1055.257202,378.649414 
	C1075.231934,389.219177 1086.363525,405.630402 1088.392212,428.156097 
	C1090.040894,446.460205 1088.371948,464.098907 1077.681152,479.844086 
	C1068.952515,492.699524 1056.883545,501.580902 1042.503784,506.656158 
	C1006.767578,519.269104 970.801941,519.434814 935.815552,504.369629 
	C907.906067,492.351807 893.424072,470.071472 891.870911,439.603271 
	C891.752625,437.283081 891.855347,434.951630 891.855347,432.212097 
	C903.509033,432.212097 915.225281,432.212097 927.303650,432.212097 
	C927.747742,436.222321 928.053406,440.332764 928.678345,444.394073 
	C931.447205,462.387115 941.786682,474.510773 958.677979,480.366119 
	C981.569336,488.301422 1004.766418,488.991638 1027.457520,479.427399 
	C1050.906738,469.543579 1059.939697,445.523529 1049.270996,421.911438 
z"/>
<path fill="#FEFEFF" opacity="1.000000" stroke="none" 
	d="
M503.040192,434.000000 
	C503.040192,372.051575 503.040192,310.603180 503.040192,248.841766 
	C559.207275,248.841766 614.932495,248.841766 671.029663,248.841766 
	C671.029663,258.482605 671.029663,268.045715 671.029663,278.251556 
	C627.148621,278.251556 583.276550,278.251556 539.153687,278.251556 
	C539.153687,306.296814 539.153687,333.702972 539.153687,361.525208 
	C579.646729,361.525208 619.916077,361.525208 660.564819,361.525208 
	C660.564819,371.334808 660.564819,380.743256 660.564819,390.745178 
	C620.379456,390.745178 580.010071,390.745178 539.270752,390.745178 
	C539.270752,421.374908 539.270752,451.418030 539.270752,482.026245 
	C583.132263,482.026245 627.013611,482.026245 671.145752,482.026245 
	C671.145752,492.184265 671.145752,501.780731 671.145752,511.689789 
	C615.270813,511.689789 559.526855,511.689789 503.040192,511.689789 
	C503.040192,485.994202 503.040192,460.247101 503.040192,434.000000 
z"/>
<path fill="#FDFEFE" opacity="1.000000" stroke="none" 
	d="
M335.863098,406.137421 
	C328.049744,396.911194 320.461426,387.958221 311.921967,377.883026 
	C311.921967,423.398041 311.921967,467.429626 311.921967,511.730042 
	C299.813171,511.730042 288.234772,511.730042 276.346375,511.730042 
	C276.346375,424.186401 276.346375,336.765839 276.346375,248.930145 
	C287.966583,248.930145 299.666412,248.930145 311.913177,248.930145 
	C311.913177,290.222870 311.913177,331.411926 311.913177,373.792206 
	C314.140106,371.325226 315.572083,369.812286 316.923828,368.230774 
	C349.944153,329.597626 382.990295,290.986481 415.898682,252.258194 
	C418.323151,249.404922 420.749268,248.354736 424.397156,248.437469 
	C434.391357,248.664078 444.394043,248.515594 454.393372,248.515594 
	C456.006989,248.515594 457.620636,248.515594 460.563324,248.515594 
	C423.614594,290.508514 387.562775,331.482086 351.173492,372.839203 
	C390.507568,419.000671 429.705139,465.001984 469.386169,511.570648 
	C467.604126,511.755615 466.413300,511.983856 465.221954,511.986603 
	C453.389465,512.013367 441.554840,511.882660 429.725677,512.083008 
	C426.556976,512.136658 424.603149,511.090424 422.594788,508.706818 
	C393.820557,474.556458 364.941772,440.494171 335.863098,406.137421 
z"/>
<path fill="#FCFDFE" opacity="1.000000" stroke="none" 
	d="
M769.999207,309.000000 
	C769.999207,298.711823 769.999207,288.923645 769.999207,278.655457 
	C744.922241,278.655457 720.343140,278.655457 695.451050,278.655457 
	C695.451050,268.587646 695.451050,258.999603 695.451050,248.959534 
	C756.722778,248.959534 818.076721,248.959534 879.776245,248.959534 
	C879.776245,258.607483 879.776245,268.319885 879.776245,278.534241 
	C855.231873,278.534241 830.811096,278.534241 805.707031,278.534241 
	C805.707031,356.547485 805.707031,434.066498 805.707031,511.793610 
	C793.580505,511.793610 782.139832,511.793610 769.999207,511.793610 
	C769.999207,444.306641 769.999207,376.903320 769.999207,309.000000 
z"/>
<path fill="#FEFEFE" opacity="1.000000" stroke="none" 
	d="
M1465.900146,324.000061 
	C1465.900146,376.472565 1465.900146,428.445099 1465.900146,480.866882 
	C1506.785645,480.866882 1547.371704,480.866882 1588.362305,480.866882 
	C1588.362305,491.348480 1588.362305,501.387909 1588.362305,511.716797 
	C1535.683472,511.716797 1483.125122,511.716797 1430.302368,511.716797 
	C1430.302368,424.083954 1430.302368,336.652588 1430.302368,248.868576 
	C1442.031372,248.868576 1453.756836,248.868576 1465.900146,248.868576 
	C1465.900146,273.903656 1465.900146,298.701843 1465.900146,324.000061 
z"/>
<path fill="#FBFC03" opacity="1.000000" stroke="none" 
	d="
M1542.986938,175.210205 
	C1542.778442,171.212372 1540.679932,169.935379 1537.338623,169.234787 
	C1521.721802,165.960312 1506.155518,162.444412 1490.572998,159.006042 
	C1489.838745,158.843994 1489.123047,158.598129 1488.364746,157.518112 
	C1499.442871,155.038452 1510.517822,152.544006 1521.600708,150.085693 
	C1526.793701,148.933838 1531.976074,147.703690 1537.212402,146.789856 
	C1540.747803,146.172836 1542.369629,144.600616 1543.089966,140.856430 
	C1546.320190,124.063919 1549.951416,107.348564 1554.390259,90.459511 
	C1555.493652,95.446495 1556.646118,100.423210 1557.690552,105.422516 
	C1560.172119,117.301559 1562.733643,129.166687 1564.971313,141.092133 
	C1565.619385,144.545807 1567.094971,146.030243 1570.534180,146.747314 
	C1586.916504,150.163086 1603.241577,153.853470 1619.666748,158.459152 
	C1611.540894,160.289413 1603.418823,162.136993 1595.287964,163.945129 
	C1586.850586,165.821411 1578.435303,167.819702 1569.947021,169.431366 
	C1566.781860,170.032318 1565.645386,171.558884 1565.052124,174.530655 
	C1561.796875,190.832031 1558.360596,207.097244 1554.978882,223.373291 
	C1554.849731,223.994507 1554.640869,224.599197 1553.491577,225.345123 
	C1550.007935,208.772018 1546.524292,192.198929 1542.986938,175.210205 
z"/>
<path fill="#F9FBFC" opacity="1.000000" stroke="none" 
	d="
M486.557861,665.495117 
	C488.629242,659.035400 491.311584,652.999573 492.178772,646.713257 
	C494.611633,629.077393 496.295807,611.338257 498.330231,593.148560 
	C490.042206,592.739136 482.364136,593.498962 475.421936,597.606445 
	C468.230347,601.861694 465.542053,610.711304 469.220856,619.624512 
	C470.804779,623.462158 470.276855,625.632141 467.260773,628.040222 
	C464.555237,630.200317 462.177856,632.771362 459.035309,635.748962 
	C455.571655,622.949646 456.580597,611.443970 464.355194,601.549744 
	C476.618134,585.943481 493.952484,583.344666 512.345520,584.024048 
	C510.429688,597.506226 508.573242,610.570496 506.716797,623.634827 
	C507.061523,623.754639 507.406250,623.874390 507.750977,623.994202 
	C511.738617,619.380310 515.627686,614.676453 519.734985,610.171692 
	C527.729431,601.403625 536.195862,593.171021 546.931091,587.704224 
	C554.329041,583.936951 561.956177,583.018677 570.775269,585.754333 
	C567.713867,589.137329 565.166077,592.124023 562.389771,594.880615 
	C561.812561,595.453735 560.229492,595.568787 559.379883,595.225891 
	C551.742004,592.144714 544.966064,594.351990 538.642822,598.625916 
	C530.030457,604.447021 523.670837,612.316589 519.223206,621.639771 
	C518.567261,623.014832 519.000610,625.551025 519.893677,626.922302 
	C527.153564,638.069763 534.317017,649.305481 542.151855,660.045959 
	C550.464661,671.441772 553.385498,671.330627 563.971558,660.968750 
	C563.971558,663.053894 564.848083,665.908142 563.814392,667.086304 
	C560.047729,671.379211 556.065979,675.799316 551.285767,678.743164 
	C549.151001,680.057861 544.073669,679.041077 541.827332,677.228760 
	C536.838806,673.204346 532.202820,668.430237 528.488708,663.204468 
	C520.896851,652.522644 514.007385,641.341492 506.469543,629.816956 
	C505.757050,635.559814 504.934357,641.021606 504.429779,646.512695 
	C503.507416,656.550171 501.017975,665.606323 490.780060,670.715088 
	C495.133881,671.108459 499.487701,671.501831 504.389008,671.944641 
	C499.957214,677.388306 496.103180,681.611633 488.392151,680.320801 
	C480.935699,679.072571 473.217438,679.388489 464.621002,678.968811 
	C469.642273,674.403687 472.320374,668.343140 480.183167,669.913147 
	C481.893860,670.254700 484.270416,667.261780 486.557861,665.495117 
z"/>
<path fill="#F9FBFC" opacity="1.000000" stroke="none" 
	d="
M650.102173,734.133911 
	C640.079346,738.182129 630.282410,739.632141 619.242188,735.821472 
	C622.216675,732.525024 624.559265,729.362000 627.517517,726.956055 
	C628.561523,726.106995 631.206726,726.789734 632.957092,727.317017 
	C644.835815,730.894775 657.412415,728.035034 663.738586,719.158569 
	C667.045654,714.518494 669.720459,709.012207 671.109924,703.501099 
	C674.885315,688.526917 677.826660,673.342407 681.076904,658.236572 
	C681.197815,657.674622 681.092285,657.064026 681.092285,655.894714 
	C676.905945,661.387939 673.360474,666.590576 669.226562,671.273926 
	C666.406616,674.468628 663.052795,677.414490 659.417664,679.611267 
	C654.806885,682.397766 650.960876,680.658691 649.223328,675.583923 
	C648.479370,673.411255 648.074280,671.052368 647.939026,668.753235 
	C647.234985,656.784180 646.689819,644.805908 646.034180,632.833801 
	C645.898132,630.350891 645.791931,627.813171 645.180298,625.426758 
	C644.716553,623.617432 643.382874,620.546814 642.591370,620.594727 
	C640.536865,620.719238 638.207031,621.869141 636.654541,623.322632 
	C634.640625,625.208191 633.272949,627.783875 631.518372,630.212891 
	C628.390503,628.105469 629.044006,625.237854 630.868591,623.396667 
	C634.909607,619.318726 639.083008,615.109375 643.940308,612.175171 
	C648.988403,609.125793 653.766113,611.582886 654.844299,617.414612 
	C656.048889,623.929810 656.414856,630.609619 656.973206,637.232361 
	C657.685852,645.684631 657.881958,654.195251 658.951721,662.597839 
	C659.769165,669.019226 662.883911,670.082336 667.503357,665.531921 
	C677.868774,655.321228 683.901184,642.677734 686.933777,628.536377 
	C687.038147,628.049377 687.048706,627.542664 687.142029,627.052673 
	C689.461792,614.869873 689.462708,614.870056 701.646362,611.310120 
	C701.788696,611.763306 702.131592,612.260376 702.045593,612.666687 
	C697.365540,634.780701 692.872314,656.938171 687.824890,678.968567 
	C685.867676,687.511047 683.240356,696.010986 679.872620,704.094666 
	C674.143738,717.846313 663.971558,727.674927 650.102173,734.133911 
z"/>
<path fill="#F9FBFC" opacity="1.000000" stroke="none" 
	d="
M1135.545044,611.459473 
	C1136.535645,612.140564 1137.786987,613.083374 1137.676636,613.822998 
	C1135.367920,629.290527 1132.854004,644.727417 1130.512451,660.190308 
	C1129.998535,663.583984 1129.989624,667.054077 1129.685791,671.374268 
	C1137.832642,669.747192 1139.509155,662.975281 1144.134277,656.824585 
	C1144.455933,659.672424 1145.281128,661.531189 1144.686768,662.602356 
	C1140.852295,669.513184 1136.177734,675.857971 1128.897583,679.473267 
	C1121.970703,682.913086 1117.737305,680.043640 1118.256592,672.332275 
	C1118.635498,666.704712 1119.571655,661.114563 1120.449829,653.954956 
	C1118.667969,656.022461 1117.876953,657.088684 1116.939209,658.004700 
	C1110.529663,664.265320 1104.210083,670.627380 1097.582031,676.649109 
	C1095.699951,678.359009 1092.988281,679.362183 1090.486450,680.143372 
	C1083.908447,682.197021 1079.714233,679.498840 1079.962280,672.569153 
	C1080.331177,662.272339 1081.612061,652.007874 1082.519653,641.730896 
	C1082.988525,636.422363 1083.614136,631.123230 1083.897095,625.805420 
	C1083.976685,624.309692 1083.093750,622.762817 1082.652344,621.239380 
	C1081.016479,621.843628 1078.909546,622.003296 1077.837402,623.139404 
	C1075.136719,626.001587 1072.902832,629.303955 1069.219360,632.303040 
	C1069.546875,630.192322 1069.126221,627.374329 1070.334473,626.096252 
	C1074.968018,621.194946 1079.666504,616.102966 1085.216553,612.392090 
	C1090.592529,608.797729 1095.404541,611.798279 1095.144165,618.338562 
	C1094.754028,628.136658 1093.451782,637.897827 1092.557983,647.676636 
	C1092.057739,653.150696 1091.429199,658.620544 1091.168823,664.106995 
	C1090.898438,669.801208 1093.406616,671.526489 1098.569580,669.102661 
	C1107.296021,665.005859 1112.225586,657.178284 1117.129395,649.408813 
	C1122.052124,641.609558 1124.368774,632.865051 1124.792603,623.851074 
	C1125.133789,616.594543 1127.999878,612.558228 1135.545044,611.459473 
z"/>
<path fill="#F8FAFC" opacity="1.000000" stroke="none" 
	d="
M1342.100586,636.106079 
	C1348.549805,629.685425 1354.737183,622.966003 1361.568848,616.982056 
	C1364.562256,614.360107 1368.716064,612.716858 1372.618896,611.561340 
	C1378.316772,609.874451 1382.225464,612.368530 1382.098633,618.275818 
	C1381.903564,627.370789 1380.542603,636.445618 1379.569092,645.517517 
	C1378.788574,652.790405 1377.783691,660.039734 1377.046265,667.316528 
	C1376.928467,668.478149 1377.552856,670.672791 1378.078613,670.751221 
	C1379.342651,670.939941 1381.219849,670.577393 1382.019287,669.689575 
	C1385.083862,666.286316 1387.821045,662.588440 1391.999512,659.100769 
	C1391.723877,661.219971 1392.225220,664.075745 1391.036621,665.329224 
	C1386.186646,670.444031 1381.308838,675.806946 1375.498535,679.655029 
	C1370.275269,683.114258 1365.671631,680.066406 1366.072144,673.700989 
	C1366.760376,662.766418 1368.328735,651.887939 1369.495972,640.982483 
	C1370.009155,636.188293 1370.661499,631.394226 1370.848267,626.584412 
	C1371.002197,622.623169 1368.776855,620.205933 1364.868286,621.975891 
	C1360.741455,623.844604 1356.469604,626.117065 1353.311646,629.266479 
	C1343.740967,638.811340 1339.176270,650.805176 1338.093384,664.187134 
	C1337.985962,665.514832 1337.927246,666.848511 1337.764893,668.169495 
	C1336.630371,677.401123 1335.855957,678.205933 1325.669312,680.379395 
	C1326.630371,671.638550 1327.605957,663.080994 1328.504150,654.515259 
	C1329.493042,645.082642 1330.503418,635.650024 1331.270264,626.198425 
	C1331.400513,624.591309 1330.353149,622.888611 1329.849854,621.230103 
	C1328.239624,621.938416 1326.192017,622.247253 1325.107178,623.435303 
	C1322.575195,626.208191 1320.506226,629.403748 1316.929199,632.355347 
	C1317.071533,630.398315 1316.442871,627.708618 1317.487671,626.609436 
	C1322.348267,621.495361 1327.210449,616.147339 1332.973511,612.198608 
	C1337.774048,608.909180 1342.450195,611.835144 1342.615723,617.758118 
	C1342.772705,623.372620 1341.831543,629.017822 1341.295044,635.321045 
	C1341.278809,636.258789 1341.340820,636.525024 1341.402954,636.791199 
	C1341.635498,636.562805 1341.868042,636.334473 1342.100586,636.106079 
z"/>
<path fill="#F9FAFC" opacity="1.000000" stroke="none" 
	d="
M1051.893799,600.030518 
	C1049.623169,623.851135 1045.563599,647.079102 1044.928711,671.735168 
	C1052.859985,669.010071 1054.886963,663.176025 1057.769897,658.135132 
	C1058.278687,658.116394 1058.787476,658.097656 1059.296265,658.078918 
	C1059.386230,660.108093 1060.210205,662.486267 1059.440063,664.106506 
	C1055.977173,671.390991 1050.518921,676.983521 1043.016113,680.104492 
	C1037.726074,682.304871 1033.849243,679.845886 1033.996582,674.017334 
	C1034.227173,664.886169 1035.029297,655.748413 1036.032227,646.662354 
	C1037.821411,630.452820 1039.509033,614.211487 1042.054565,598.112366 
	C1044.219849,584.419312 1050.891113,572.736145 1061.230469,563.374512 
	C1070.026123,555.410706 1080.390625,552.576416 1093.442993,554.548279 
	C1089.707764,558.360779 1086.793213,561.623718 1083.521240,564.476868 
	C1082.683594,565.207397 1080.682251,564.862000 1079.274414,564.639099 
	C1067.972778,562.850098 1059.769897,567.242371 1056.330078,578.144775 
	C1054.146973,585.063843 1053.351196,592.420715 1051.893799,600.030518 
z"/>
<path fill="#F8FAFC" opacity="1.000000" stroke="none" 
	d="
M1254.920898,671.860352 
	C1250.625610,657.993896 1253.595825,645.487488 1260.605957,633.825134 
	C1263.485840,629.034302 1267.335205,624.783997 1271.045654,620.552734 
	C1272.875854,618.465576 1275.232300,616.713013 1277.629639,615.273926 
	C1284.649414,611.059937 1292.202271,608.958130 1299.806519,613.242981 
	C1307.251465,617.438049 1307.724121,625.237671 1307.547729,632.569885 
	C1307.134521,649.754578 1299.232422,663.508484 1286.179565,674.147095 
	C1282.364868,677.256287 1277.233032,679.284973 1272.378296,680.461670 
	C1264.430298,682.388000 1259.043945,679.375793 1254.920898,671.860352 
M1294.072266,627.745239 
	C1290.979858,618.283508 1278.636353,616.613525 1272.084351,625.571716 
	C1263.385254,637.465698 1262.137085,650.813171 1266.737427,664.488281 
	C1269.453369,672.561584 1278.410278,674.832886 1285.106201,669.523315 
	C1287.754761,667.423157 1290.093018,664.511963 1291.616089,661.488159 
	C1296.932007,650.934326 1297.448364,639.819214 1294.072266,627.745239 
z"/>
<path fill="#F8FAFC" opacity="1.000000" stroke="none" 
	d="
M1018.629944,631.089844 
	C1018.275818,648.965088 1010.532410,662.798523 997.617859,673.982056 
	C992.150818,678.716370 985.731384,681.329041 978.352661,680.768127 
	C971.104858,680.217102 966.488403,676.274048 964.987488,668.778748 
	C961.282166,650.274658 968.186401,634.997986 980.697266,622.084778 
	C984.823730,617.825623 990.345215,614.121704 995.928772,612.233032 
	C1008.375977,608.022583 1016.770386,614.113525 1018.263550,627.168701 
	C1018.395996,628.327087 1018.487732,629.489990 1018.629944,631.089844 
M1001.756531,622.625793 
	C994.713440,617.934753 987.768372,618.977051 982.681458,626.095825 
	C974.674988,637.300476 973.553528,649.891602 977.076233,662.800903 
	C979.844177,672.944214 990.106750,675.378601 997.840149,668.215027 
	C1008.080627,658.729065 1010.469055,634.503174 1001.756531,622.625793 
z"/>
<path fill="#F8FAFC" opacity="1.000000" stroke="none" 
	d="
M806.968079,650.049316 
	C809.865479,637.959534 816.013306,628.225159 824.564514,619.960266 
	C829.589233,615.103821 835.448914,611.716370 842.585632,611.138733 
	C852.056335,610.372314 858.297607,615.231201 859.947266,624.523865 
	C863.365479,643.778625 851.557556,668.459229 834.258606,677.532837 
	C830.961670,679.262085 827.080505,680.369812 823.370178,680.721130 
	C814.421387,681.568359 808.391785,677.204468 807.029846,668.299622 
	C806.140564,662.484802 806.883789,656.420288 806.968079,650.049316 
M848.980530,646.131836 
	C848.699585,641.168579 848.771667,636.152771 848.042786,631.256165 
	C847.242859,625.882568 844.606873,621.344727 838.798767,620.089172 
	C832.538696,618.735962 827.713806,621.508118 824.270630,626.585022 
	C817.000244,637.305115 816.000427,649.148376 818.641602,661.472290 
	C819.748596,666.637634 822.372742,670.878784 828.028076,671.929871 
	C833.857239,673.013123 839.059204,670.879272 841.707458,665.852295 
	C844.816956,659.949524 846.589417,653.342407 848.980530,646.131836 
z"/>
<path fill="#F8FAFC" opacity="1.000000" stroke="none" 
	d="
M753.520691,621.799805 
	C752.154419,621.748291 751.221619,621.697144 750.086121,621.634949 
	C753.991150,614.830200 756.765320,613.153870 764.716797,612.778015 
	C765.022522,611.328491 765.439392,609.776184 765.668274,608.196655 
	C766.981384,599.133606 766.966309,599.131409 777.332153,597.061157 
	C776.883850,602.267517 776.450012,607.305664 775.965210,612.936035 
	C785.673340,612.936035 795.196960,612.936035 805.647644,612.936035 
	C801.077820,618.536865 797.379272,622.976929 790.001892,621.926147 
	C785.284119,621.254211 780.392883,621.800354 774.922913,621.800354 
	C774.243774,627.701660 773.548584,633.406982 772.938782,639.121521 
	C772.073608,647.229675 770.937988,655.331726 770.627319,663.463562 
	C770.521973,666.219055 772.038391,670.922607 773.759338,671.412292 
	C776.234192,672.116333 779.814026,670.185425 782.466309,668.611145 
	C784.485413,667.412598 785.795471,665.019592 787.420959,663.157959 
	C787.878601,663.269958 788.336243,663.382019 788.793945,663.494080 
	C788.352356,665.606201 788.636536,668.567261 787.338196,669.677307 
	C782.750244,673.599854 778.020569,677.803833 772.591187,680.177795 
	C766.323303,682.918396 760.011963,678.532593 760.126282,671.599548 
	C760.320496,659.824097 761.573486,648.062988 762.485779,636.304016 
	C762.845276,631.670532 763.484497,627.058716 764.066895,621.800232 
	C760.518677,621.800232 757.236389,621.800232 753.520691,621.799805 
z"/>
<path fill="#F8FAFC" opacity="1.000000" stroke="none" 
	d="
M1167.113770,603.344177 
	C1168.437744,599.450562 1170.982910,598.127808 1178.344604,597.270813 
	C1177.894409,602.402039 1177.450684,607.458374 1176.969727,612.939941 
	C1186.797607,612.939941 1196.210327,612.939941 1206.540527,612.939941 
	C1202.208618,618.185730 1198.950439,622.835876 1191.695679,621.922852 
	C1186.642944,621.286987 1181.445679,621.800354 1175.622192,621.800354 
	C1174.214722,636.369629 1172.684570,650.557312 1171.634277,664.780457 
	C1171.468140,667.030029 1173.056396,671.020569 1174.561523,671.412842 
	C1176.953003,672.036194 1180.280884,670.838806 1182.611572,669.422546 
	C1184.911499,668.025085 1186.465210,665.399536 1188.346191,663.312744 
	C1188.846680,663.399597 1189.347290,663.486389 1189.847778,663.573242 
	C1189.325928,665.744507 1189.519897,668.726013 1188.149536,669.936646 
	C1183.865356,673.721375 1179.381470,677.719666 1174.248047,679.994934 
	C1167.436035,683.014160 1160.997925,678.756897 1161.103882,671.278809 
	C1161.267944,659.668640 1162.542236,648.070618 1163.455811,636.476196 
	C1163.821045,631.839966 1164.478271,627.226685 1165.079224,621.927002 
	C1160.338013,621.927002 1155.832153,621.927002 1150.348022,621.927002 
	C1154.728027,616.094727 1158.305786,611.236572 1165.941040,613.140747 
	C1166.364258,609.641174 1166.719604,606.702087 1167.113770,603.344177 
z"/>
<path fill="#F8FAFC" opacity="1.000000" stroke="none" 
	d="
M601.337158,647.365906 
	C595.858398,650.144592 590.676575,652.712341 585.345154,655.354248 
	C585.299377,662.724915 588.383972,668.895935 593.961853,670.302734 
	C606.037048,673.348267 611.643066,664.846680 617.005859,656.228699 
	C617.492859,656.288025 617.979919,656.347351 618.466919,656.406677 
	C618.466919,658.190796 619.160767,660.414368 618.354370,661.687866 
	C613.085510,670.008362 606.406921,676.990479 596.690002,679.919617 
	C584.913513,683.469727 575.355286,676.406189 574.082458,663.651123 
	C572.393921,646.731140 585.407715,622.054626 600.484314,613.873230 
	C605.615234,611.088989 611.460571,608.928772 616.378052,613.209167 
	C621.163696,617.374634 619.574890,623.385132 617.672607,628.592529 
	C614.701965,636.724548 608.648926,642.405884 601.337158,647.365906 
M609.595215,631.793030 
	C610.307495,627.809021 610.197266,623.985962 606.037231,621.904724 
	C601.781311,619.775452 597.870728,621.112061 594.691711,624.235596 
	C588.786804,630.037354 586.229675,637.326843 585.424072,645.388916 
	C595.815552,647.547302 605.425354,642.223206 609.595215,631.793030 
z"/>
<path fill="#F8FAFC" opacity="1.000000" stroke="none" 
	d="
M912.800537,670.622803 
	C914.710327,668.615417 915.998901,669.000671 918.177551,670.100403 
	C921.896973,671.977905 926.101013,673.692017 930.178101,673.888977 
	C937.381897,674.236938 941.453918,667.650146 938.049438,661.222961 
	C935.676880,656.743896 932.083374,652.888977 928.878052,648.880981 
	C926.387634,645.766846 923.411194,643.023193 921.076233,639.806030 
	C915.052124,631.505798 916.525269,622.275452 924.876648,616.328125 
	C933.923035,609.885803 943.806946,610.002808 954.836609,613.434326 
	C952.002686,616.116150 949.663391,618.576660 947.023193,620.655029 
	C946.362732,621.174927 944.714233,620.556030 943.554138,620.303101 
	C940.033752,619.535645 936.540222,618.077393 933.017700,618.019714 
	C927.657166,617.931946 925.222107,622.149414 927.844238,626.919067 
	C929.819641,630.512207 932.638306,633.668945 935.262878,636.871277 
	C938.635437,640.986145 942.478455,644.742004 945.599365,649.030518 
	C950.653564,655.975769 950.259399,663.005554 945.018311,669.680786 
	C936.161621,680.960938 918.357971,684.277771 905.662354,676.508057 
	C908.057190,674.542664 910.292786,672.708008 912.800537,670.622803 
z"/>
<path fill="#F9FAFC" opacity="1.000000" stroke="none" 
	d="
M1209.647461,632.467041 
	C1209.270508,630.459045 1208.314087,627.459839 1209.351440,626.384705 
	C1214.249023,621.309265 1219.234497,616.061096 1225.079224,612.234924 
	C1230.177612,608.897339 1234.577026,611.832458 1234.131104,617.995667 
	C1233.388550,628.264099 1231.799072,638.472900 1230.502686,648.698792 
	C1229.749634,654.639404 1228.778076,660.553833 1228.125122,666.504211 
	C1227.979736,667.829041 1228.759277,669.255371 1229.113037,670.635010 
	C1230.597290,670.151306 1232.584229,670.111023 1233.473877,669.102661 
	C1236.415161,665.769226 1238.960449,662.086243 1242.426636,657.525818 
	C1242.766968,659.487061 1243.671509,661.234497 1243.150391,662.252686 
	C1239.456421,669.473511 1234.584717,675.846497 1227.163696,679.527588 
	C1220.410034,682.877686 1216.096802,680.142395 1216.881836,672.691650 
	C1218.397461,658.305298 1220.669922,644.000122 1222.392090,629.632935 
	C1222.722046,626.879761 1221.963135,623.996216 1221.706543,621.172852 
	C1219.197510,622.847046 1216.442261,624.255249 1214.256470,626.278687 
	C1212.479126,627.924011 1211.384277,630.306702 1209.647461,632.467041 
z"/>
<path fill="#F6F9FB" opacity="1.000000" stroke="none" 
	d="
M1234.585693,586.639343 
	C1238.705688,583.983215 1242.513184,581.517639 1246.364624,579.023621 
	C1248.160645,586.609192 1240.055420,596.620178 1226.492676,602.505676 
	C1229.465820,596.515747 1231.869629,591.672852 1234.585693,586.639343 
z"/>
<path fill="#24619B" opacity="1.000000" stroke="none" 
	d="
M1161.071045,381.926666 
	C1160.872437,360.197083 1163.919067,339.035645 1173.486450,319.321991 
	C1186.167114,293.193634 1207.024414,278.206970 1236.072021,275.051331 
	C1250.616455,273.471283 1265.096558,273.996124 1279.123779,278.341156 
	C1305.046997,286.371033 1321.119385,304.755371 1329.674805,329.641693 
	C1341.248535,363.307861 1340.885986,397.316193 1329.789673,431.153442 
	C1319.101807,463.744812 1291.187378,484.676849 1256.873535,485.988739 
	C1242.454712,486.540009 1228.179688,485.734680 1214.583252,480.431458 
	C1191.806030,471.547302 1177.674316,454.355469 1169.414917,431.969482 
	C1164.195068,417.821594 1161.777100,403.045380 1161.591553,387.501343 
	C1169.186523,387.045746 1176.343384,387.216034 1183.486328,386.972168 
	C1184.864136,386.925140 1186.186768,385.256073 1187.534790,384.335266 
	C1186.194580,383.447540 1184.871216,381.825256 1183.511353,381.794159 
	C1176.036133,381.623322 1168.552124,381.841797 1161.071045,381.926666 
M1267.953125,357.442230 
	C1260.098633,356.262054 1252.147095,353.653809 1244.408325,354.178894 
	C1224.084473,355.557831 1208.111694,366.172760 1194.477905,380.747711 
	C1191.753052,383.660645 1192.488159,385.900299 1194.885498,388.466919 
	C1203.056519,397.215057 1212.352905,404.463654 1223.315430,409.310608 
	C1232.237793,413.255615 1241.615112,415.507080 1251.485840,414.713593 
	C1271.936646,413.069702 1287.786987,402.693817 1301.557861,388.314850 
	C1304.391357,385.356262 1303.954346,383.041809 1301.304199,380.238770 
	C1292.013062,370.411530 1281.426392,362.534760 1267.953125,357.442230 
M1182.179932,347.493958 
	C1182.180786,351.157776 1181.878784,354.857361 1182.304932,358.470978 
	C1182.532349,360.399139 1184.017456,362.178955 1184.934937,364.025757 
	C1185.919312,362.232941 1187.702515,360.463074 1187.755005,358.643463 
	C1188.037598,348.825836 1188.034180,338.992767 1187.820557,329.171722 
	C1187.736816,325.318970 1188.860107,323.878448 1192.893433,323.979401 
	C1202.879272,324.229340 1212.879272,324.190308 1222.864746,323.931458 
	C1224.569214,323.887329 1226.230713,322.181213 1227.912109,321.242981 
	C1226.275879,320.269836 1224.656250,318.487274 1223.000732,318.453308 
	C1211.181641,318.211029 1199.353516,318.438232 1187.531860,318.266174 
	C1183.265015,318.204071 1182.042236,320.086121 1182.131958,324.014984 
	C1182.302979,331.505249 1182.180664,339.002228 1182.179932,347.493958 
M1308.485840,360.737579 
	C1309.465698,361.832031 1310.445679,362.926514 1311.425537,364.020966 
	C1312.276611,362.607452 1313.843872,361.205292 1313.866577,359.778625 
	C1314.062622,347.457184 1313.943970,335.131165 1314.004150,322.806915 
	C1314.021606,319.231323 1312.138916,318.297394 1308.939453,318.318939 
	C1297.115112,318.398590 1285.287720,318.240845 1273.467163,318.469666 
	C1271.733521,318.503265 1270.031128,320.145905 1268.314209,321.044067 
	C1270.096313,322.042145 1271.855347,323.852081 1273.664185,323.903351 
	C1283.649170,324.186188 1293.649048,324.176178 1303.637695,323.970856 
	C1307.398560,323.893555 1308.540161,325.235718 1308.476440,328.893036 
	C1308.296509,339.215668 1308.428223,349.543762 1308.485840,360.737579 
M1195.643311,444.732269 
	C1187.263550,444.643311 1187.891235,445.765869 1187.869141,436.942169 
	C1187.846191,427.780792 1188.004272,418.614929 1187.724609,409.461975 
	C1187.673950,407.802948 1185.894775,406.196747 1184.913452,404.566223 
	C1184.012573,406.084595 1182.357056,407.589783 1182.330200,409.123474 
	C1182.117065,421.279358 1182.266724,433.441101 1182.181763,445.600159 
	C1182.157471,449.085663 1183.782715,450.335266 1187.062500,450.310913 
	C1199.054810,450.221954 1211.050293,450.326019 1223.037109,450.042358 
	C1224.665039,450.003845 1226.250488,448.175873 1227.855591,447.176514 
	C1226.269775,446.363403 1224.701294,444.889282 1223.095215,444.847107 
	C1214.273071,444.615204 1205.441650,444.733826 1195.643311,444.732269 
M1289.500244,450.150330 
	C1296.155884,450.144928 1302.823608,450.352905 1309.458008,449.975006 
	C1311.000244,449.887177 1313.688110,447.834778 1313.716675,446.635559 
	C1314.026001,433.665222 1313.968872,420.683929 1313.796631,407.708496 
	C1313.782593,406.652832 1312.184692,405.618195 1311.322754,404.573792 
	C1310.401733,405.538269 1309.136353,406.358917 1308.656860,407.507721 
	C1308.178589,408.653046 1308.459106,410.127319 1308.457642,411.457428 
	C1308.447876,420.941711 1308.329956,430.428345 1308.511597,439.909119 
	C1308.580811,443.517395 1307.510376,444.917084 1303.706543,444.829529 
	C1293.894653,444.603699 1284.073486,444.693634 1274.257568,444.801300 
	C1272.008057,444.825989 1268.525513,443.697510 1268.636108,447.505463 
	C1268.663208,448.443359 1272.411377,449.853943 1274.533813,450.031219 
	C1279.160400,450.417633 1283.841675,450.150574 1289.500244,450.150330 
M1249.775146,297.369141 
	C1246.947998,295.791168 1245.506104,297.290070 1245.430176,299.857635 
	C1245.225342,306.793976 1245.241577,313.743469 1245.458740,320.678772 
	C1245.492676,321.766876 1247.033081,322.807892 1247.877075,323.870697 
	C1248.890869,322.794952 1250.772095,321.724701 1250.778931,320.642609 
	C1250.826416,313.082428 1250.486206,305.519806 1249.775146,297.369141 
M1245.284058,451.756531 
	C1245.304810,457.395020 1245.193848,463.039703 1245.459351,468.666626 
	C1245.511719,469.773010 1246.841675,471.152374 1247.937500,471.718201 
	C1248.399292,471.956604 1250.601440,470.430969 1250.619141,469.674591 
	C1250.797729,462.067841 1250.750732,454.452576 1250.546265,446.845642 
	C1250.528198,446.171631 1248.949585,445.028503 1248.099731,445.032166 
	C1247.255615,445.035797 1246.028442,446.051544 1245.670410,446.914490 
	C1245.189453,448.073151 1245.381836,449.511230 1245.284058,451.756531 
M1314.700439,387.114746 
	C1320.340088,387.108795 1325.989624,387.281677 1331.612427,386.971405 
	C1333.022827,386.893585 1334.347656,385.263977 1335.711670,384.347473 
	C1334.356445,383.455780 1333.035400,381.861847 1331.640259,381.794189 
	C1325.682617,381.505157 1319.692871,381.472015 1313.738403,381.787689 
	C1312.041260,381.877655 1310.423096,383.458679 1308.768799,384.355988 
	C1310.431519,385.274597 1312.094116,386.193207 1314.700439,387.114746 
z"/>
<path fill="#C7CBCE" opacity="1.000000" stroke="none" 
	d="
M1160.937012,382.231323 
	C1168.552124,381.841797 1176.036133,381.623322 1183.511353,381.794159 
	C1184.871216,381.825256 1186.194580,383.447540 1187.534790,384.335266 
	C1186.186768,385.256073 1184.864136,386.925140 1183.486328,386.972168 
	C1176.343384,387.216034 1169.186523,387.045746 1161.575684,387.063110 
	C1161.012207,385.582947 1160.907593,384.059448 1160.937012,382.231323 
z"/>
<path fill="#215F9A" opacity="1.000000" stroke="none" 
	d="
M1341.940674,635.950562 
	C1341.868042,636.334473 1341.635498,636.562805 1341.402954,636.791199 
	C1341.340820,636.525024 1341.278809,636.258789 1341.331299,635.746460 
	C1341.445923,635.500366 1341.780762,635.794983 1341.940674,635.950562 
z"/>
<path fill="#23619B" opacity="1.000000" stroke="none" 
	d="
M1294.217285,628.114136 
	C1297.448364,639.819214 1296.932007,650.934326 1291.616089,661.488159 
	C1290.093018,664.511963 1287.754761,667.423157 1285.106201,669.523315 
	C1278.410278,674.832886 1269.453369,672.561584 1266.737427,664.488281 
	C1262.137085,650.813171 1263.385254,637.465698 1272.084351,625.571716 
	C1278.636353,616.613525 1290.979858,618.283508 1294.217285,628.114136 
z"/>
<path fill="#23619B" opacity="1.000000" stroke="none" 
	d="
M1002.018066,622.905945 
	C1010.469055,634.503174 1008.080627,658.729065 997.840149,668.215027 
	C990.106750,675.378601 979.844177,672.944214 977.076233,662.800903 
	C973.553528,649.891602 974.674988,637.300476 982.681458,626.095825 
	C987.768372,618.977051 994.713440,617.934753 1002.018066,622.905945 
z"/>
<path fill="#23619B" opacity="1.000000" stroke="none" 
	d="
M848.961121,646.586304 
	C846.589417,653.342407 844.816956,659.949524 841.707458,665.852295 
	C839.059204,670.879272 833.857239,673.013123 828.028076,671.929871 
	C822.372742,670.878784 819.748596,666.637634 818.641602,661.472290 
	C816.000427,649.148376 817.000244,637.305115 824.270630,626.585022 
	C827.713806,621.508118 832.538696,618.735962 838.798767,620.089172 
	C844.606873,621.344727 847.242859,625.882568 848.042786,631.256165 
	C848.771667,636.152771 848.699585,641.168579 848.961121,646.586304 
z"/>
<path fill="#26639C" opacity="1.000000" stroke="none" 
	d="
M609.456909,632.161743 
	C605.425354,642.223206 595.815552,647.547302 585.424072,645.388916 
	C586.229675,637.326843 588.786804,630.037354 594.691711,624.235596 
	C597.870728,621.112061 601.781311,619.775452 606.037231,621.904724 
	C610.197266,623.985962 610.307495,627.809021 609.456909,632.161743 
z"/>
<path fill="#C4C8CB" opacity="1.000000" stroke="none" 
	d="
M1268.315918,357.599640 
	C1281.426392,362.534760 1292.013062,370.411530 1301.304199,380.238770 
	C1303.954346,383.041809 1304.391357,385.356262 1301.557861,388.314850 
	C1287.786987,402.693817 1271.936646,413.069702 1251.485840,414.713593 
	C1241.615112,415.507080 1232.237793,413.255615 1223.315430,409.310608 
	C1212.352905,404.463654 1203.056519,397.215057 1194.885498,388.466919 
	C1192.488159,385.900299 1191.753052,383.660645 1194.477905,380.747711 
	C1208.111694,366.172760 1224.084473,355.557831 1244.408325,354.178894 
	C1252.147095,353.653809 1260.098633,356.262054 1268.315918,357.599640 
M1222.112549,402.499878 
	C1222.271973,402.170227 1222.431396,401.840576 1222.400879,400.808746 
	C1215.804321,389.355194 1216.497803,377.885376 1223.110107,366.402405 
	C1222.590210,366.074158 1222.070312,365.745941 1221.550293,365.417694 
	C1213.856323,371.437012 1206.162354,377.456299 1198.195068,383.689453 
	C1205.732910,391.838715 1212.971924,398.055359 1222.112549,402.499878 
M1274.883057,402.072998 
	C1283.374390,397.638733 1290.698120,391.753387 1297.973999,383.571930 
	C1289.959106,377.383301 1282.252563,371.432678 1274.545898,365.482056 
	C1274.056885,365.857178 1273.567871,366.232300 1273.078857,366.607391 
	C1280.309204,378.293915 1279.961670,389.967010 1273.351074,401.927368 
	C1273.632568,402.021423 1273.914062,402.115479 1274.883057,402.072998 
M1228.157104,399.255859 
	C1233.835083,406.529907 1241.304077,409.455505 1250.455322,408.889832 
	C1264.198853,408.040253 1274.453125,395.498352 1272.832031,381.224701 
	C1271.272949,367.497253 1257.507202,357.239563 1244.204102,359.892365 
	C1225.504517,363.621277 1217.694946,382.013824 1228.157104,399.255859 
z"/>
<path fill="#BBC3CA" opacity="1.000000" stroke="none" 
	d="
M1182.180054,346.995178 
	C1182.180664,339.002228 1182.302979,331.505249 1182.131958,324.014984 
	C1182.042236,320.086121 1183.265015,318.204071 1187.531860,318.266174 
	C1199.353516,318.438232 1211.181641,318.211029 1223.000732,318.453308 
	C1224.656250,318.487274 1226.275879,320.269836 1227.912109,321.242920 
	C1226.230713,322.181213 1224.569214,323.887329 1222.864746,323.931458 
	C1212.879272,324.190308 1202.879272,324.229340 1192.893433,323.979401 
	C1188.860107,323.878448 1187.736816,325.318970 1187.820557,329.171722 
	C1188.034180,338.992767 1188.037598,348.825836 1187.755005,358.643463 
	C1187.702515,360.463074 1185.919312,362.232941 1184.934937,364.025757 
	C1184.017456,362.178955 1182.532349,360.399139 1182.304932,358.470978 
	C1181.878784,354.857361 1182.180786,351.157776 1182.180054,346.995178 
z"/>
<path fill="#C0C6CB" opacity="1.000000" stroke="none" 
	d="
M1308.461426,360.303650 
	C1308.428223,349.543762 1308.296509,339.215668 1308.476440,328.893036 
	C1308.540161,325.235718 1307.398560,323.893555 1303.637695,323.970856 
	C1293.649048,324.176178 1283.649170,324.186188 1273.664185,323.903351 
	C1271.855347,323.852081 1270.096313,322.042145 1268.314209,321.044067 
	C1270.031128,320.145905 1271.733521,318.503265 1273.467163,318.469666 
	C1285.287720,318.240845 1297.115112,318.398590 1308.939453,318.318939 
	C1312.138916,318.297394 1314.021606,319.231323 1314.004150,322.806915 
	C1313.943970,335.131165 1314.062622,347.457184 1313.866577,359.778625 
	C1313.843872,361.205292 1312.276611,362.607452 1311.425537,364.020996 
	C1310.445679,362.926514 1309.465698,361.832031 1308.461426,360.303650 
z"/>
<path fill="#C0C6CB" opacity="1.000000" stroke="none" 
	d="
M1196.128418,444.732178 
	C1205.441650,444.733826 1214.273071,444.615204 1223.095215,444.847107 
	C1224.701294,444.889282 1226.269775,446.363403 1227.855591,447.176514 
	C1226.250488,448.175873 1224.665039,450.003845 1223.037109,450.042358 
	C1211.050293,450.326019 1199.054810,450.221954 1187.062500,450.310913 
	C1183.782715,450.335266 1182.157471,449.085663 1182.181763,445.600159 
	C1182.266724,433.441101 1182.117065,421.279358 1182.330200,409.123474 
	C1182.357056,407.589783 1184.012573,406.084595 1184.913452,404.566193 
	C1185.894775,406.196747 1187.673950,407.802948 1187.724609,409.461975 
	C1188.004272,418.614929 1187.846191,427.780792 1187.869141,436.942169 
	C1187.891235,445.765869 1187.263550,444.643311 1196.128418,444.732178 
z"/>
<path fill="#C6C9CD" opacity="1.000000" stroke="none" 
	d="
M1289.000488,450.150452 
	C1283.841675,450.150574 1279.160400,450.417633 1274.533813,450.031219 
	C1272.411377,449.853943 1268.663208,448.443359 1268.636108,447.505463 
	C1268.525513,443.697510 1272.008057,444.825989 1274.257568,444.801300 
	C1284.073486,444.693634 1293.894653,444.603699 1303.706543,444.829529 
	C1307.510376,444.917084 1308.580811,443.517395 1308.511597,439.909119 
	C1308.329956,430.428345 1308.447876,420.941711 1308.457642,411.457428 
	C1308.459106,410.127319 1308.178589,408.653046 1308.656860,407.507721 
	C1309.136353,406.358917 1310.401733,405.538269 1311.322754,404.573792 
	C1312.184692,405.618195 1313.782593,406.652832 1313.796631,407.708496 
	C1313.968872,420.683929 1314.026001,433.665222 1313.716675,446.635559 
	C1313.688110,447.834778 1311.000244,449.887177 1309.458008,449.975006 
	C1302.823608,450.352905 1296.155884,450.144928 1289.000488,450.150452 
z"/>
<path fill="#B9C1C9" opacity="1.000000" stroke="none" 
	d="
M1250.022705,297.663544 
	C1250.486206,305.519806 1250.826416,313.082428 1250.778931,320.642609 
	C1250.772095,321.724701 1248.890869,322.794952 1247.877075,323.870697 
	C1247.033081,322.807892 1245.492676,321.766876 1245.458740,320.678772 
	C1245.241577,313.743469 1245.225342,306.793976 1245.430176,299.857635 
	C1245.506104,297.290070 1246.947998,295.791168 1250.022705,297.663544 
z"/>
<path fill="#B9C1C9" opacity="1.000000" stroke="none" 
	d="
M1245.284668,451.292969 
	C1245.381836,449.511230 1245.189453,448.073151 1245.670410,446.914490 
	C1246.028442,446.051544 1247.255615,445.035797 1248.099731,445.032166 
	C1248.949585,445.028503 1250.528198,446.171631 1250.546265,446.845642 
	C1250.750732,454.452576 1250.797729,462.067841 1250.619141,469.674591 
	C1250.601440,470.430969 1248.399292,471.956604 1247.937500,471.718201 
	C1246.841675,471.152374 1245.511719,469.773010 1245.459351,468.666626 
	C1245.193848,463.039703 1245.304810,457.395020 1245.284668,451.292969 
z"/>
<path fill="#C7CBCE" opacity="1.000000" stroke="none" 
	d="
M1314.228638,387.113281 
	C1312.094116,386.193207 1310.431519,385.274597 1308.768799,384.355957 
	C1310.423096,383.458679 1312.041260,381.877655 1313.738403,381.787689 
	C1319.692871,381.472015 1325.682617,381.505157 1331.640259,381.794189 
	C1333.035400,381.861847 1334.356445,383.455780 1335.711670,384.347473 
	C1334.347656,385.263977 1333.022827,386.893585 1331.612427,386.971405 
	C1325.989624,387.281677 1320.340088,387.108795 1314.228638,387.113281 
z"/>
<path fill="#29649D" opacity="1.000000" stroke="none" 
	d="
M1227.952881,398.951599 
	C1217.694946,382.013824 1225.504517,363.621277 1244.204102,359.892365 
	C1257.507202,357.239563 1271.272949,367.497253 1272.832031,381.224701 
	C1274.453125,395.498352 1264.198853,408.040253 1250.455322,408.889832 
	C1241.304077,409.455505 1233.835083,406.529907 1227.952881,398.951599 
M1264.049194,381.943268 
	C1263.792114,380.980347 1263.600342,379.994232 1263.267944,379.058075 
	C1260.277832,370.634247 1251.724487,366.363556 1243.169556,368.999542 
	C1234.907471,371.545258 1230.265381,380.430450 1232.757812,388.928192 
	C1235.025024,396.657623 1242.352295,401.324097 1250.476440,400.212280 
	C1258.907959,399.058411 1264.094727,392.447113 1264.049194,381.943268 
z"/>
<path fill="#2A659D" opacity="1.000000" stroke="none" 
	d="
M1273.616089,401.629486 
	C1279.961670,389.967010 1280.309204,378.293915 1273.078857,366.607391 
	C1273.567871,366.232300 1274.056885,365.857178 1274.545898,365.482056 
	C1282.252563,371.432678 1289.959106,377.383301 1297.973999,383.571930 
	C1290.698120,391.753387 1283.374390,397.638733 1274.395020,401.995544 
	C1273.907104,401.918121 1273.616089,401.629486 1273.616089,401.629486 
z"/>
<path fill="#2A659D" opacity="1.000000" stroke="none" 
	d="
M1221.868408,402.146637 
	C1212.971924,398.055359 1205.732910,391.838715 1198.195068,383.689453 
	C1206.162354,377.456299 1213.856323,371.437012 1221.550293,365.417694 
	C1222.070312,365.745941 1222.590210,366.074158 1223.110107,366.402405 
	C1216.497803,377.885376 1215.804321,389.355194 1222.308838,401.311523 
	C1222.216797,401.814270 1221.868408,402.146637 1221.868408,402.146637 
z"/>
<path fill="#2A659D" opacity="1.000000" stroke="none" 
	d="
M1222.403809,401.662598 
	C1222.431396,401.840576 1222.271973,402.170227 1221.990479,402.323242 
	C1221.868408,402.146637 1222.216797,401.814270 1222.403809,401.662598 
z"/>
<path fill="#2A659D" opacity="1.000000" stroke="none" 
	d="
M1274.051270,402.063812 
	C1273.914062,402.115479 1273.632568,402.021423 1273.483643,401.778442 
	C1273.616089,401.629486 1273.907104,401.918121 1274.051270,402.063812 
z"/>
<path fill="#C4C8CB" opacity="1.000000" stroke="none" 
	d="
M1264.096191,382.367554 
	C1264.094727,392.447113 1258.907959,399.058411 1250.476440,400.212280 
	C1242.352295,401.324097 1235.025024,396.657623 1232.757812,388.928192 
	C1230.265381,380.430450 1234.907471,371.545258 1243.169556,368.999542 
	C1251.724487,366.363556 1260.277832,370.634247 1263.267944,379.058075 
	C1263.600342,379.994232 1263.792114,380.980347 1264.096191,382.367554 
M1237.613403,385.322021 
	C1238.374146,390.293793 1241.159668,393.552582 1246.069214,394.620850 
	C1250.135132,395.505493 1253.697266,394.177673 1256.302979,390.920563 
	C1259.324097,387.144257 1259.662231,382.970886 1257.072754,378.861877 
	C1254.515503,374.803741 1250.682617,373.115784 1245.933472,374.080261 
	C1240.980469,375.086212 1238.437012,378.371094 1237.613403,385.322021 
z"/>
<path fill="#28649C" opacity="1.000000" stroke="none" 
	d="
M1237.598267,384.899506 
	C1238.437012,378.371094 1240.980469,375.086212 1245.933472,374.080261 
	C1250.682617,373.115784 1254.515503,374.803741 1257.072754,378.861877 
	C1259.662231,382.970886 1259.324097,387.144257 1256.302979,390.920563 
	C1253.697266,394.177673 1250.135132,395.505493 1246.069214,394.620850 
	C1241.159668,393.552582 1238.374146,390.293793 1237.598267,384.899506 
z"/>
</svg>