<svg version="1.1" xmlns="http://www.w3.org/2000/svg" width="4000" height="2000" viewBox="0 0 4000 2000"><path d="M2003.978 61.988c23.874 0.036 47.748 0.032 71.624 0.026q66.044 -0.012 132.086 0.054 65.242 0.062 130.484 0.072l8.242 0.002 41.46 0.006q146.224 0.022 292.446 0.124 141.912 0.094 283.828 0.136l8.86 0.002 88.116 0.026 187.78 0.058c183.104 0.062 366.202 0.168 549.302 0.282a570130 570130 0 0 1 0.37 421.784l0.004 8.964q0.048 71.756 0.144 143.512 0.096 73.678 0.114 147.36 0.012 45.428 0.094 90.856 0.052 31.192 0.038 62.388c-0.004 11.98 0 23.96 0.038 35.942q0.044 16.498 0.012 33.004 -0.006 5.92 0.026 11.84c0.186 36.5 -3.722 72.78 -12.612 108.248l-1.426 5.79c-9.698 38.182 -23.43 74.272 -40.614 109.682l-2.512 5.23c-26.204 54.042 -61.908 105.544 -102.87 149.478a1322 1322 0 0 0 -7.148 8.266c-32.286 36.89 -67.336 70.216 -104.96 101.598l-4.208 3.526c-57.012 47.618 -119.77 89.506 -184.132 126.518l-4.338 2.516c-10.43 6.038 -20.968 11.868 -31.536 17.664l-6.434 3.56c-171.562 94.682 -359.394 158.984 -1052.946 285.458l-4.888 0.414c-90.52 7.408 -180.948 9.626 -271.748 9.486q-12.628 -0.018 -25.26 -0.024c-77.682 -0.078 -155.116 -0.552 -232.586 -6.848 -7.422 -0.598 -14.848 -1.166 -22.274 -1.734 -182.532 -14.048 -363.184 -41.928 -540.814 -86.278l-5.552 -1.384c-138.462 -34.592 -275.18 -79.794 -404.762 -139.862q-4.428 -2.032 -8.86 -4.058c-117.588 -53.856 -232.876 -118.344 -331.948 -202.22l-7.016 -5.84c-15.648 -13.07 -30.808 -26.576 -45.74 -40.452a800 800 0 0 0 -9.78 -8.804c-19.2 -17.174 -36.776 -35.674 -54.056 -54.766l-3.61 -3.984C186.724 1301.96 114.624 1169.184 113.894 1035.142l-0.048 -5.864a3298 3298 0 0 1 -0.058 -18.626l-0.004 -6.422c0.034 -30.32 0.784 -59.708 7.292 -89.43l1.166 -5.68c9.664 -46.6 25.162 -90.56 45.92 -133.336l2.512 -5.23c26.2 -54.042 61.904 -105.546 102.868 -149.478a1322 1322 0 0 0 7.146 -8.27c32.288 -36.886 67.338 -70.212 104.962 -101.596l4.208 -3.526c57.012 -47.618 119.77 -89.506 184.134 -126.518l4.338 -2.516c10.43 -6.038 20.968 -11.868 31.536 -17.664l6.434 -3.56c171.346 -94.56 358.946 -158.848 1387.678 -295.438" fill="#215F99"/><path d="M2981.93 603.988c61.874 52.346 90.536 127.358 98.43 206.736 5.888 89.556 -8.628 183.18 -66.908 254.298l-4.738 5.858c-40.036 47.064 -102.514 75.668 -163.422 81.586 -6.868 0.338 -13.724 0.42 -20.598 0.456l-5.85 0.038q-6.104 0.032 -12.21 0.044c-6.106 0.022 -12.208 0.09 -18.314 0.162 -24.48 0.15 -46.97 -1.784 -70.83 -7.426l-5.772 -1.314c-61.98 -15 -115.52 -54.234 -148.938 -108.552 -17.734 -30.952 -30.094 -63.924 -38.116 -98.654l-2.05 -8.426c-18.952 -87.146 -4.35 -191.404 42.408 -267.358 6.234 -9.352 13.124 -18.164 20.18 -26.906l3.4 -4.44c31.07 -39.018 83.042 -65.412 131.154 -75.332 4.222 -0.896 8.41 -1.932 12.596 -2.978 83.508 -18.5 182.628 -2.594 249.578 52.208" fill="#23609A"/><path d="M2981.93 603.988c61.874 52.346 90.536 127.358 98.43 206.736 5.888 89.556 -8.628 183.18 -66.908 254.298l-4.738 5.858c-40.036 47.064 -102.514 75.668 -163.422 81.586 -6.868 0.338 -13.724 0.42 -20.598 0.456l-5.85 0.038q-6.104 0.032 -12.21 0.044c-6.106 0.022 -12.208 0.09 -18.314 0.162 -24.48 0.15 -46.97 -1.784 -70.83 -7.426l-5.772 -1.314c-61.98 -15 -115.52 -54.234 -148.938 -108.552 -17.734 -30.952 -30.094 -63.924 -38.116 -98.654l-2.05 -8.426c-18.952 -87.146 -4.35 -191.404 42.408 -267.358 6.234 -9.352 13.124 -18.164 20.18 -26.906l3.4 -4.44c31.07 -39.018 83.042 -65.412 131.154 -75.332 4.222 -0.896 8.41 -1.932 12.596 -2.978 83.508 -18.5 182.628 -2.594 249.578 52.208m-325.408 64.866c-43.868 52.278 -56.726 118.83 -55.626 185.406l58.296 2.242v6.726l-58.296 2.242c0 16.926 0.754 30.914 3.644 47.226l1.202 6.794c10.13 53.95 34.83 104.852 79.796 138.104 46.748 31.024 105.32 37.5 160.052 28.214 8.368 -1.794 16.336 -4.354 24.366 -7.332l7.392 -2.618c42.652 -16.392 73.996 -49.008 93.924 -89.59 19.068 -44.012 27.04 -86.946 27.188 -134.668l0.022 -4.56c0.09 -30.316 -2.984 -59.798 -11.094 -89.05l-1.754 -6.336c-13.524 -46.516 -41.876 -90.87 -84.326 -115.87 -78.322 -40.906 -182.32 -32.736 -244.786 33.072" fill="#FDFDFE"/><path d="M2365.654 592.892c27.77 23.514 42.292 49.562 51.386 84.238l2.242 6.726v29.148h-80.718l-4.484 -33.632c-12.478 -28.52 -30.006 -41.778 -58.296 -53.812 -7.39 -2.746 -14.758 -4.888 -22.422 -6.726l-5.298 -1.392c-39.476 -8.902 -84.484 -5.41 -119.518 15.704 -16.252 11.272 -27.104 24.554 -32.134 43.984 -2.626 20.1 -3.606 42.718 7.522 60.406 30.616 38.326 87.294 50.734 132.718 62.44 148.192 39.436 148.192 39.436 184.872 99.128 15.004 26.92 18.526 52.764 18.778 83.1l0.094 7.392c-0.202 34.83 -11.592 65.532 -32.326 93.364l-3.318 4.53c-32.574 40.776 -90.172 59.124 -140.18 64.978 -12.426 0.93 -24.852 0.976 -37.308 0.876 -5.44 -0.036 -10.874 0 -16.316 0.044 -23.264 0.03 -44.748 -2.504 -67.452 -7.648l-4.462 -0.986c-31.882 -7.056 -60.48 -20.074 -85.224 -41.614l-3.984 -3.022c-21.108 -16.418 -34.514 -39.298 -43.1 -64.244l-2.086 -6.042c-6.926 -21.58 -6.882 -40.38 -6.882 -63.464h80.718l4.484 38.116c9.574 30.09 25.206 49.578 52.97 64.322 42.606 21.136 100.544 23.388 145.8 9.956l7.508 -2.528 6.456 -2.04c22.056 -7.78 42.654 -24.248 54.222 -44.792 6.444 -14.28 7.052 -28.034 7.148 -43.414l0.142 -5.494c0.116 -18.468 -4.388 -35.402 -16.196 -49.922 -32.108 -31.266 -79.672 -42.006 -121.548 -53.58 -124.192 -34.426 -124.192 -34.426 -163.408 -69.818l-4.134 -3.592c-20.778 -19.228 -33.716 -44.312 -36.784 -72.36l-0.55 -4.924c-4.114 -42.59 1.974 -83.314 28.252 -118.22 24.518 -28.638 57.79 -45.138 93.934 -54.266l7.874 -2.04c72.834 -15.834 161.182 -6.042 221.008 41.122" fill="#FDFDFE"/><path d="M1125.56 553.812h376.682v67.264H1206.278v188.34H1479.82v65.022H1206.278v204.036h295.964v67.264H1125.56z" fill="#FDFDFE"/><path d="M616.592 553.812h80.718l2.242 278.026c12.84 -14.126 25.136 -27.83 37.066 -42.592 10.074 -12.258 20.574 -24.148 30.994 -36.116 5.79 -6.67 11.54 -13.374 17.284 -20.088l3.334 -3.894 6.65 -7.772q6.704 -7.832 13.414 -15.656l6.716 -7.836q8.52 -9.946 17.066 -19.868c10.294 -11.958 20.522 -23.94 30.452 -36.2a532 532 0 0 1 19.758 -22.982 562 562 0 0 0 20.04 -23.262l4.87 -5.804c5.464 -6.648 5.464 -6.648 9.596 -13.866 11.858 -18.042 11.858 -18.042 23.132 -21.258 14.114 -1.958 28.24 -1.042 42.418 -0.272q6.492 0.202 12.982 0.368c10.536 0.294 21.054 0.758 31.58 1.314 -3.686 7.774 -8.008 13.28 -13.872 19.618l-5.518 6.026 -5.272 5.746a1446 1446 0 0 0 -21.782 25.086c-11.978 14.062 -24.096 27.918 -36.67 41.45 -6.496 7.04 -12.63 14.276 -18.622 21.748 -9.086 11.3 -18.832 21.816 -28.762 32.36 -7.27 7.764 -14.196 15.662 -20.846 23.974 -7.816 9.77 -16.094 18.926 -24.664 28.026a528 528 0 0 0 -29.488 34.08 252 252 0 0 1 -12.56 13.89l-3.792 3.93a456 456 0 0 1 -7.478 7.512c-6.628 6.794 -6.628 6.794 -8.672 15.77 3.388 7.286 8.214 12.5 13.784 18.148q3.412 3.588 6.816 7.19l3.424 3.624c4.57 4.95 8.8 10.142 13.022 15.392 8.018 9.95 16.272 19.652 24.664 29.286a2906 2906 0 0 1 30.336 35.382c7.502 8.892 15.056 17.736 22.634 26.558q12.956 15.08 25.784 30.27 12.764 15.112 25.646 30.13l3.374 3.934q8.586 10.006 17.188 19.992c10.292 11.956 20.516 23.932 30.446 36.19a522 522 0 0 0 20.18 23.404c23.124 25.394 23.124 25.394 23.124 30.97 -13.516 0.838 -27.014 1.444 -40.55 1.848q-6.884 0.252 -13.756 0.69c-36.946 2.302 -36.946 2.302 -49.26 -5.748 -8.6 -7.74 -15.234 -16.636 -21.516 -26.308 -3.856 -5.83 -8.308 -11.108 -12.812 -16.446l-4.764 -5.886c-6.502 -7.87 -13.19 -15.568 -19.9 -23.262 -8.372 -9.6 -16.648 -19.244 -24.664 -29.148 -9.144 -11.284 -18.622 -22.248 -28.156 -33.202 -11.032 -12.68 -21.906 -25.486 -32.736 -38.34 -5.104 -6.054 -10.224 -12.098 -15.34 -18.144l-6.166 -7.286 -3.082 -3.644 -77.074 -91.088 -2.242 295.964h-80.718z" fill="#FDFDFE"/><path d="M1556.054 553.812h414.798v69.506h-165.92V1145.74h-80.718V623.318h-168.162z" fill="#FAFBFD"/><path d="M3204.036 553.812h80.718v522.422h275.784v69.506h-356.502z" fill="#FDFDFE"/><path d="m2809.418 791.48 6.308 0.394c32.006 3.61 60.072 20.852 83.378 42.206q5.112 4.348 10.23 8.688c5.238 4.508 8.276 7.86 12.19 13.734 -0.428 11.974 -12.024 19.714 -20.074 27.458 -9.054 8.374 -18.902 15.202 -29.254 21.87l-4.048 3.05c-28.432 20.47 -63.368 20.93 -96.85 19.372v-4.484l-4.292 -0.428c-30.302 -4.148 -54.186 -19.646 -76.426 -39.93l-5.508 -4.878c-11.992 -11.15 -11.992 -11.15 -13.646 -18.366 1.778 -8.616 7.086 -13.248 13.27 -19.076l3.714 -3.582c33.744 -31.928 74.036 -49.408 121.006 -46.024" fill="#C2C6CA"/><path d="M3479.82 197.31h4.484l1.488 8.172a1788 1788 0 0 0 16.406 78.534c3.132 13.718 5.542 27.076 6.77 41.096l4.344 0.662c20.352 3.234 40.47 7.426 60.626 11.702q8.784 1.86 17.574 3.704l11.216 2.37 5.286 1.11c6.736 1.434 13.252 2.938 19.79 5.116v4.484a212930 212930 0 0 1 -66.346 15.328l-5.48 1.266q-5.23 1.21 -10.464 2.4 -5.286 1.218 -10.56 2.484c-8.83 2.076 -16.84 3.776 -25.984 3.186l-0.748 5.328c-2.652 18.108 -6.206 35.844 -10.32 53.668 -5.02 22.118 -9.692 44.222 -13.594 66.566h-4.484l-1.056 -5.114 -6.796 -32.884a9338 9338 0 0 0 -8.992 -43.088l-1.566 -7.428q-1.466 -6.944 -2.95 -13.89l-1.326 -6.29 -1.166 -5.47c-0.816 -4.672 -0.816 -4.672 -0.816 -11.398l-7.588 -0.836c-10.964 -1.374 -21.672 -3.616 -32.466 -5.96l-6.206 -1.332q-6.45 -1.388 -12.894 -2.78 -9.878 -2.14 -19.762 -4.254l-12.566 -2.706 -5.964 -1.28 -5.538 -1.202 -4.86 -1.052c-4.262 -1.02 -4.262 -1.02 -10.99 -3.262v-4.484l43.864 -9.766a16510 16510 0 0 1 31.86 -7.068l9.8 -2.17q6.556 -1.45 13.112 -2.884l7.434 -1.634c6.038 -1.142 6.038 -1.142 12.764 -1.142l0.704 -4.496c3.35 -20.754 7.462 -41.328 11.628 -61.928l2.094 -10.404q1.988 -9.892 3.984 -19.78 3.142 -15.596 6.254 -31.194" fill="#FAFB03"/><path d="M1145.74 1307.174c0.714 15.304 -1.996 29.92 -4.484 44.984q-1.278 7.742 -2.522 15.494l-1.14 6.884c-0.838 6.764 -0.964 13.274 -0.822 20.082l9.11 -10.09 5.64 -6.244a660 660 0 0 0 12.858 -14.918c19.956 -22.706 50.932 -54.434 82.766 -56.708 3.772 0.044 3.772 0.044 7.618 0.096l7.654 0.042c6.64 0.378 6.64 0.378 13.366 2.622 -3.058 6.708 -6.614 11.86 -11.492 17.376l-3.662 4.17 -2.782 3.116 -4.204 -1.122c-22.852 -3.654 -37.36 0.394 -56.536 13.224 -15.776 12.31 -26.834 30.68 -35.654 48.426 -0.032 7.742 4.506 13.576 8.53 19.908l2.77 4.468c25.764 42.316 25.764 42.316 60.43 76.532 5.76 0.532 5.76 0.532 11.21 -2.242l5.746 -5.744 5.466 -5.468h8.968c-0.358 14.3 -8.154 21.93 -17.938 31.39 -6.816 5.566 -11.34 8.508 -19.9 10.37 -24.21 -4.844 -41.914 -32.78 -54.714 -51.962l-3.86 -5.914 -4.08 -6.18a686 686 0 0 1 -29.552 -49.452l-0.512 4.414c-0.79 6.704 -1.61 13.408 -2.43 20.108l-0.802 6.942c-4.192 33.644 -4.192 33.644 -14.132 45.61l-4.686 3.644 -4.702 3.784c-4.126 2.942 -4.126 2.942 -8.612 5.184l29.148 2.242c-4.626 9.254 -7.484 13.974 -15.696 20.18 -7.61 1.43 -14.986 1.162 -22.702 0.84l-6.356 -0.134c-14.272 -0.368 -28.526 -1.09 -42.69 -2.948q3.22 -3.784 6.446 -7.568l3.626 -4.256c7.24 -8.29 7.24 -8.29 12.892 -8.89l5.904 -0.166c9.39 -0.748 9.39 -0.748 16.958 -6.308 12.118 -22.302 15.072 -44.782 17.524 -69.82l0.718 -7.048q1.122 -11.032 2.216 -22.068 1.114 -11.08 2.242 -22.164 0.696 -6.86 1.376 -13.728c1.042 -10.346 2.2 -20.578 4.09 -30.812 -32.636 2.09 -32.636 2.09 -59.276 19.338 -7.352 11.172 -6.636 21.322 -5.746 34.474a172 172 0 0 0 3.224 9.53c1.26 8.408 1.26 8.408 -1.542 12.76 -7.16 7.39 -14.928 13.344 -24.104 18.07 -8.364 -13.614 -6.294 -32.246 -2.942 -47.27 8.784 -26.17 25.606 -43.746 49.746 -56.43 24.16 -11.378 45.778 -11.192 72.03 -10.65" fill="#F7F9FB"/><path d="M2912.276 1371.218c9.168 7.15 14.888 14.726 16.832 26.24 0.35 5.624 0.386 11.148 0.264 16.78l-0.068 6.004c-0.432 15.214 -3.062 28 -10.022 41.642l-3.032 6.474c-12.832 24.238 -30.738 44.642 -56.524 55.044 -13.14 2.152 -23.364 3.61 -35.456 -2.662 -11.106 -9.52 -16.31 -18.452 -17.606 -33.292 -1.032 -35.628 10.432 -66.406 34.142 -92.83 18.684 -19.266 44.104 -36.91 71.468 -23.402" fill="#F8FAFC"/><path d="M2264.294 1371.218c9.168 7.15 14.888 14.726 16.832 26.24 0.35 5.624 0.386 11.148 0.264 16.78l-0.068 6.004c-0.432 15.214 -3.062 28 -10.022 41.642l-3.032 6.474c-12.832 24.238 -30.738 44.642 -56.524 55.044 -13.14 2.152 -23.364 3.61 -35.456 -2.662 -11.106 -9.52 -16.31 -18.452 -17.606 -33.292 -1.032 -35.628 10.432 -66.406 34.142 -92.83 18.684 -19.266 44.104 -36.91 71.468 -23.402" fill="#F8FAFC"/><path d="M1910.034 1371.218c9.168 7.15 14.888 14.726 16.832 26.24 0.35 5.624 0.386 11.148 0.264 16.78l-0.068 6.004c-0.432 15.214 -3.062 28 -10.022 41.642l-3.032 6.474c-12.832 24.238 -30.738 44.642 -56.524 55.044 -13.14 2.152 -23.364 3.61 -35.456 -2.662 -11.106 -9.52 -16.31 -18.452 -17.606 -33.292 -1.032 -35.628 10.432 -66.406 34.142 -92.83 18.684 -19.266 44.104 -36.91 71.468 -23.402" fill="#F8FAFC"/><path d="M1459.642 1369.956c7.076 7.192 8.004 13.696 9.11 23.542l0.52 4.53c2.068 19.16 3.18 38.43 4.304 57.664 0.832 13.154 1.852 25.118 6.244 37.582 8.69 -0.744 13.442 -3.188 19.32 -9.642 12.848 -15.786 22.44 -32.006 30.006 -50.896l1.944 -4.782a111.2 111.2 0 0 0 6.054 -24.392c3.448 -24.982 3.448 -24.982 9.476 -30.68 8.392 -3.244 16.222 -2.948 25.128 -2.926a5762 5762 0 0 1 -21.3 103.42l-1.91 8.908 -0.944 4.404a850 850 0 0 0 -5.3 27.466c-2.682 15.006 -5.926 29.34 -11.464 43.582l-2.07 5.412c-13.978 35.522 -34.85 62.364 -69.118 80.35 -15.754 6.714 -31.374 9.29 -48.486 9.39l-7.516 0.094c-6.554 -0.498 -10.22 -1.59 -15.746 -5 3.534 -9.188 9.494 -17.282 17.938 -22.422 7.988 1.402 7.988 1.402 12.56 2.978 16.908 4.738 34.588 3.072 50.22 -4.624 11.772 -7.448 17.73 -14.16 23.822 -26.8l3.872 -7.874c7.382 -16.368 11.702 -33.184 15.002 -50.782l1.178 -6.096c1.224 -6.346 2.428 -12.698 3.632 -19.048q1.244 -6.508 2.5 -13.012 3.042 -15.84 6.046 -31.692l-4 5.928 -5.354 7.848 -2.616 3.89c-10.572 15.432 -23.374 32.748 -41.842 38.388 -5.886 -0.28 -5.886 -0.28 -11.21 -2.242 -17.968 -19.836 -12.702 -61.334 -13.686 -86.76 -0.234 -5.834 -0.488 -11.666 -0.746 -17.5l-0.186 -5.4c-0.384 -8.516 -0.802 -15.386 -5.56 -22.628 -9.558 1.062 -13.934 6.552 -20.18 13.452l-4.484 6.726h-4.484c-1.242 -7.104 -1.058 -11.792 2.864 -17.946 12.308 -14.704 26.184 -29.172 46.464 -22.412" fill="#F8FAFB"/><path d="M2827.354 811.66c10.374 7.934 20.846 18.702 24.664 31.39 2.202 17.214 2.002 32.532 -7.724 47.314 -10.708 13.074 -23.484 23.136 -40.596 25.566 -19.148 0.298 -31.706 -1.14 -45.85 -14.582 -6.14 -6.446 -9.896 -11.304 -11.21 -20.18h-4.484c-2.396 -7.19 -2.54 -12.488 -2.522 -20.038l-0.018 -7.07c0.256 -5.576 0.928 -10.18 2.54 -15.494h4.484l0.142 -4.624c3.654 -11.452 11.974 -19.216 22.534 -24.778 18.912 -7.088 39.986 -7.002 58.042 2.496" fill="#29649C"/><path d="M2446.188 1367.714c3.714 2.408 3.714 2.408 6.726 6.726 0.704 5.606 0.95 10.516 0.84 16.116l-0.04 4.978c-0.384 17.302 -2.774 34.334 -5.118 51.462 -2.19 16.332 -3.278 32.026 -2.408 48.52 10.734 2.706 15.024 1.054 24.664 -4.484l5.044 -2.1c4.206 -2.078 4.206 -2.078 5.876 -6.308 3.05 -6.076 6.932 -11.008 11.078 -16.394 11.854 -16.4 19.69 -30.44 22.562 -50.686l1.008 -6.978q0.942 -6.988 1.608 -14.008c2.08 -16.09 2.08 -16.09 8.966 -21.412 7.726 -3.566 13.79 -5.43 22.33 -5.43l-0.778 5.426a17588 17588 0 0 0 -8.71 61.588l-1.494 10.642c-2.668 18.934 -5.254 37.826 -6.956 56.874 14.868 -5.076 20.986 -16.276 29.148 -29.148l4.484 2.242c-1.846 17.63 -12.172 29.054 -25.382 40.308 -7.578 5.418 -13.328 8.716 -22.544 10.422 -5.886 -1.402 -5.886 -1.402 -9.574 -5.352 -9.328 -15.406 -1.466 -39.992 1.446 -56.588l-2.39 3.294a856 856 0 0 1 -11.058 14.638l-3.442 4.476c-12.376 15.116 -29.834 30.67 -48.128 38.126 -14.2 0.996 -14.2 0.996 -22.422 -4.484 -7.692 -23.078 -1.384 -53.47 1.122 -77.354q0.728 -7.096 1.44 -14.192 0.642 -6.364 1.308 -12.726c0.622 -7.878 0.722 -15.63 0.616 -23.53 -7.71 0.628 -10.522 1.462 -15.74 7.366l-4.02 6.228 -4.108 6.244 -3.038 4.824 -4.484 -2.242c0.726 -13.258 4.468 -19.838 14.014 -28.588l3.252 -3.18c10.572 -10.114 19.208 -17.286 34.304 -15.318" fill="#F7F9FB"/><path d="M3000 1367.714c5.326 3.224 5.326 3.224 8.968 8.968 1.02 6.8 0.532 13.346 0 20.18l-0.534 7.296q-0.778 9.812 -1.708 19.61l4.448 -5.666c16.622 -20.678 38.222 -46.042 65.574 -51.36 11.886 -0.022 11.886 -0.022 16.772 4.608 12.582 23.216 -0.112 64.536 -3.894 88.89 -2.13 13.966 -3.462 27.914 -4.424 42.004 8.124 -3.052 12.89 -5.374 18.358 -12.19l3.318 -4.058c2.624 -3.452 5.066 -7.048 7.47 -10.656h4.484c1.278 7.118 0.846 11.944 -2.706 18.286 -9.426 12.892 -20.896 24.066 -35.41 31.04 -6.998 0.974 -6.998 0.974 -13.452 0 -5.322 -4.73 -6.558 -7.772 -7.54 -14.802 0.422 -25.17 2.148 -50.85 7.82 -75.444 3.108 -13.844 2.328 -27.938 1.962 -42.04 -17.83 1.79 -28.444 6.754 -40.358 20.18 -25.598 31.722 -29.652 63.888 -33.632 103.14l-24.664 8.968c-0.55 -18.128 1.348 -35.628 3.706 -53.568 3.532 -26.944 6.674 -53.776 7.504 -80.962 -9.598 3.018 -13.87 6.772 -19.758 14.854l-4.11 5.554 -3.038 4.252 -6.726 -2.242c1.816 -16.386 15.078 -26.982 26.774 -37.574 8.236 -6.448 14.408 -9.348 24.796 -7.27" fill="#F8FAFB"/><path d="M1374.44 1367.714c6.726 4.066 6.726 4.066 11.21 11.21 2.826 15.994 0.228 29.338 -8.968 42.6 -15.086 20.726 -35.92 35.33 -60.538 42.6h-6.726c0.896 3.932 1.838 7.854 2.802 11.772l1.576 6.622c3.17 8.47 7.714 13.44 15.8 17.482 10.3 1.256 18.098 1.04 27.466 -3.644 6.664 -5.756 11.918 -11.882 17.376 -18.778a394 394 0 0 1 8.968 -8.968c2.242 2.242 2.242 2.242 2.96 7.286 -1.644 14.116 -17.44 25.772 -27.624 35.034 -13.214 9.358 -25.976 15.432 -42.444 14.6 -10.152 -1.896 -16.26 -7.9 -23.14 -15.162 -10.386 -15.578 -10.196 -32.646 -8.408 -50.728 7.892 -32.796 27.994 -66.834 56.894 -85.34 10.488 -6.066 20.682 -8.542 32.792 -6.588" fill="#F7F9FB"/><path d="M2448.43 1239.91c-4.866 10.372 -10.116 18.752 -20.18 24.664 -8.056 0.756 -15.728 0.412 -23.804 0.026 -10.5 -0.038 -17.55 2.09 -25.522 8.942 -17.216 19.664 -19.394 47.326 -22.28 72.17l-1.116 9.282a4152 4152 0 0 0 -3.508 30.654l-0.632 5.66q-1.95 17.556 -3.808 35.124 -0.598 5.678 -1.21 11.352c-2.224 20.808 -3.968 41.256 -3.318 62.216 8.7 -1.554 12.218 -5.05 17.702 -12.034 3.182 -4.7 5.22 -9.484 6.962 -14.872l6.726 2.242c-0.332 15.624 -7.208 24.846 -17.938 35.874 -8.728 7.384 -16.412 12.756 -27.746 14.854 -5.886 -1.402 -5.886 -1.402 -9.574 -4.66 -4.648 -8.736 -3.924 -16.994 -3.74 -26.73l-0.022 -5.56c0.122 -14.036 1.926 -27.568 4.036 -41.428 1.964 -13.762 3.122 -27.596 4.394 -41.434 2.348 -24.32 4.986 -48.29 10.23 -72.17l1.368 -6.236c8.058 -31.06 26.884 -58.914 53.022 -77.408 20.178 -11.444 37.496 -12.366 59.96 -10.526" fill="#F7F9FB"/><path d="m2639.014 1336.322 -2.242 35.874h65.022c-4.698 9.394 -7.24 14.014 -15.696 20.18 -8.868 1.374 -17.54 1.054 -26.484 0.702l-7.3 -0.154q-8.894 -0.198 -17.784 -0.548l-0.376 4.002 -2.316 24.574c-0.912 9.618 -1.868 19.224 -3.044 28.818 -1.174 10.404 -1.322 20.708 -1.27 31.17l-0.026 5.5c-0.822 8.592 -0.822 8.592 2.55 15.8 8.322 0.946 12.28 0.78 19.338 -3.924 4.852 -4.596 9.654 -9.204 14.294 -14.014 1.524 5.044 1.524 5.044 2.242 11.21 -7.506 13.856 -21.424 23.562 -35.874 29.148 -8.408 1.402 -8.408 1.402 -15.696 0 -5.896 -4.872 -10.03 -8.85 -13.452 -15.696 -2.912 -39.008 3.818 -78.03 8.968 -116.592h-33.632c17.118 -20.096 17.118 -20.096 22.298 -20.616l13.574 0.442 2.242 -29.148c17.096 -6.726 17.096 -6.726 24.664 -6.726" fill="#F7F9FB"/><path d="m1739.91 1336.322 -2.242 35.874h65.022c-4.698 9.394 -7.24 14.014 -15.696 20.18 -8.868 1.374 -17.54 1.054 -26.484 0.702l-7.3 -0.154q-8.894 -0.198 -17.784 -0.548l-0.376 4.002 -2.316 24.574c-0.912 9.618 -1.868 19.224 -3.044 28.818 -1.174 10.404 -1.322 20.708 -1.27 31.17l-0.026 5.5c-0.822 8.592 -0.822 8.592 2.55 15.8 8.322 0.946 12.28 0.78 19.338 -3.924 4.852 -4.596 9.654 -9.204 14.294 -14.014 1.524 5.044 1.524 5.044 2.242 11.21 -7.506 13.856 -21.424 23.562 -35.874 29.148 -8.408 1.402 -8.408 1.402 -15.696 0 -5.896 -4.872 -10.03 -8.85 -13.452 -15.696 -2.912 -39.008 3.818 -78.03 8.968 -116.592h-33.632c17.118 -20.096 17.118 -20.096 22.298 -20.616l13.574 0.442 2.242 -29.148c17.096 -6.726 17.096 -6.726 24.664 -6.726" fill="#F7F9FB"/><path d="M2883.408 1387.892c8.452 3.004 11.036 6.488 16.396 13.734 9.164 20.192 5.43 49.318 -0.596 69.988 -4.776 12.136 -11.248 22.086 -20.986 30.766 -8.878 3.098 -16.918 3.588 -26.204 2.104 -10.722 -5.828 -13.978 -13.376 -17.938 -24.664 -5.82 -24.79 -2.98 -50.708 10 -72.852 11.178 -15.486 20.026 -21.498 39.328 -19.076" fill="#24619B"/><path d="M2235.426 1387.892c8.452 3.004 11.036 6.488 16.396 13.734 9.164 20.192 5.43 49.318 -0.596 69.988 -4.776 12.136 -11.248 22.086 -20.986 30.766 -8.878 3.098 -16.918 3.588 -26.204 2.104 -10.722 -5.828 -13.978 -13.376 -17.938 -24.664 -5.82 -24.79 -2.98 -50.708 10 -72.852 11.178 -15.486 20.026 -21.498 39.328 -19.076" fill="#24619B"/><path d="M1881.166 1387.892c8.452 3.004 11.036 6.488 16.396 13.734 9.164 20.192 5.43 49.318 -0.596 69.988 -4.776 12.136 -11.248 22.086 -20.986 30.766 -8.878 3.098 -16.918 3.588 -26.204 2.104 -10.722 -5.828 -13.978 -13.376 -17.938 -24.664 -5.82 -24.79 -2.98 -50.708 10 -72.852 11.178 -15.486 20.026 -21.498 39.328 -19.076" fill="#24619B"/><path d="M2136.772 1372.198c-3.348 8.52 -7.966 13.082 -15.696 17.938 -6.218 -0.432 -10.156 -1.716 -15.696 -4.484a308 308 0 0 0 -13.734 -0.14l-7.444 0.06 -5.726 0.078c-1.502 11.798 -0.9 18.076 6.446 27.608 6.72 7.924 13.832 15.488 20.882 23.122 20.018 21.94 20.018 21.94 20.74 37.978 -0.838 15.47 -8.11 25.068 -18.992 35.488 -17.422 14.24 -36.322 16.496 -58.224 14.818 -6.466 -1.696 -11.838 -3.912 -17.938 -6.726 0 -6.726 0 -6.726 3.116 -10.404l4.17 -3.61 4.098 -3.678c4.312 -2.488 4.312 -2.488 8.952 -1.972 4.328 1.726 4.328 1.726 10.214 5.228 10.182 4.338 19.072 4.85 29.988 3.224 6.266 -2.902 6.266 -2.902 8.968 -8.968 1.754 -9.402 1.996 -14.498 -2.82 -22.798 -7.16 -9.408 -15.274 -17.95 -23.244 -26.668 -19.776 -21.87 -19.776 -21.87 -22.56 -37.836 0.964 -11.974 6.726 -20.852 14.994 -29.29 20.286 -14.968 46.122 -19.81 69.506 -8.968" fill="#F6F9FB"/><path d="M2762.332 1369.956c10.27 20.54 0.072 56.838 -3.364 78.616q-1.214 7.848 -2.4 15.7a1312 1312 0 0 1 -1.498 9.65c-1.348 8.778 -1.95 17.2 -1.708 26.078 7.556 -0.56 9.404 -2.708 14.716 -8.408 4.596 -5.874 8.548 -11.98 12.19 -18.498l6.726 2.242c-2.48 18.094 -16.468 30.998 -30.094 42.172 -9.244 6.978 -14.382 8.206 -25.96 7.154 -13.162 -19.744 -2.292 -57.146 1.122 -79.596q1.21 -8.112 2.4 -16.224 0.734 -4.996 1.498 -9.988c1.32 -8.908 1.956 -17.474 1.708 -26.478 -9.588 1.066 -13.978 6.456 -20.18 13.452 -2.36 3.664 -4.648 7.382 -6.726 11.21l-4.484 -2.242c-0.826 -7.354 -0.478 -10.498 3.704 -16.738 32.186 -34.828 32.186 -34.828 52.35 -28.106" fill="#F7F9FB"/><path d="M2812.08 826.654c9.29 5.058 15.016 11.392 19.758 20.878 1.834 14.1 0.666 25.036 -7.752 36.706 -8.094 8.548 -17.77 10.72 -29.104 11.5 -11.492 -0.432 -19.648 -4.772 -28.168 -12.332 -7.59 -10.438 -8.688 -21.112 -6.726 -33.632 3.956 -10.844 10.616 -18.29 20.18 -24.664 11.442 -3.814 20.894 -3.508 31.812 1.542" fill="#C1C6CA"/><path d="M2843.05 710.762q21.014 -0.082 42.026 -0.124 7.152 -0.018 14.31 -0.044c6.838 -0.03 13.678 -0.04 20.518 -0.052l6.504 -0.034h5.986l5.294 -0.016c4.016 0.27 4.016 0.27 6.258 2.512 0.208 3.098 0.262 6.206 0.256 9.312v5.984l-0.036 6.502 -0.012 6.628q-0.022 10.52 -0.068 21.042l-0.032 14.226q-0.038 17.48 -0.11 34.96a198 198 0 0 1 -11.21 2.242c-2.242 -2.242 -2.242 -2.242 -2.498 -10.524q0 -5.532 0.036 -11.066l0.006 -5.202q0.026 -9.656 0.074 -19.312l0.142 -43.58h-87.444c-2.242 -8.968 -2.242 -8.968 0 -13.452" fill="#B9C1C8"/><path d="M2650.224 710.762h98.654l2.242 11.21c-2.242 2.242 -2.242 2.242 -10.524 2.498q-5.532 0 -11.066 -0.036l-5.202 -0.006q-9.656 -0.026 -19.312 -0.074l-43.582 -0.138v87.444l-11.21 2.242c-3.426 -3.426 -2.526 -6.502 -2.534 -11.278l-0.02 -5.802 0.014 -6.314 -0.006 -6.442q0 -6.76 0.014 -13.52c0.012 -6.914 0 -13.828 -0.016 -20.74q0 -6.556 0.008 -13.11l-0.014 -6.298 0.022 -5.828 0.004 -5.14c0.286 -4.184 0.286 -4.184 2.528 -8.668" fill="#BAC2C9"/><path d="m2652.466 903.588 8.968 4.484v85.202h87.444l2.242 11.21c-3.464 3.464 -6.698 2.526 -11.518 2.534l-5.964 0.02 -6.48 -0.014 -6.61 0.006q-6.934 0 -13.866 -0.014c-7.1 -0.012 -14.202 0 -21.302 0.016q-6.718 0 -13.438 -0.008l-6.48 0.014 -5.964 -0.022 -5.276 -0.004c-3.998 -0.286 -3.998 -0.286 -6.24 -2.528a134 134 0 0 1 -0.256 -9.312v-5.984l0.036 -6.502 0.012 -6.628q0.022 -10.52 0.068 -21.042l0.032 -14.226q0.038 -17.48 0.11 -34.96z" fill="#B7C0C8"/><path d="M2934.978 903.588h8.968q0.082 21.492 0.124 42.984 0.018 7.318 0.044 14.634 0.038 10.494 0.052 20.986l0.034 6.654v6.122l0.016 5.414c-0.27 4.102 -0.27 4.102 -2.512 6.344a134 134 0 0 1 -9.312 0.256h-5.984l-6.502 -0.036 -6.628 -0.012c-7.014 -0.012 -14.026 -0.04 -21.04 -0.068q-7.116 -0.02 -14.228 -0.032 -17.48 -0.038 -34.96 -0.11c-1.26 -4.344 -1.26 -4.344 -2.242 -8.968 2.242 -2.242 2.242 -2.242 10.728 -2.498q5.674 0 11.352 0.036l6.022 0.012c6.374 0.012 12.748 0.04 19.122 0.068q6.468 0.02 12.932 0.032 15.886 0.038 31.772 0.11l-0.036 -8.198q-0.058 -15 -0.088 -29.998 -0.018 -6.502 -0.044 -13.004 -0.038 -9.326 -0.052 -18.648l-0.034 -5.91c0 -4.644 0.112 -9.286 0.254 -13.928z" fill="#C5C8CC"/><path d="M1354.26 1390.134c6.446 3.504 6.446 3.504 11.21 8.968 1.852 10.912 -0.178 18.37 -6.122 27.72 -7.152 9.222 -16.088 16.444 -27.512 19.366 -6.746 0.33 -13.432 0.264 -20.18 0 0.072 -18.8 3.89 -32.254 15.696 -47.086 8.834 -7.73 15.146 -10.97 26.906 -8.968" fill="#26629C"/><path d="m2735.426 820.628 2.242 4.484 -3.222 7.428c-7.848 20.05 -4.656 40.166 3.502 59.512 1.962 4.808 1.962 4.808 1.962 9.294h-4.484v-4.484l-5.464 -1.26c-17.532 -7.074 -31.04 -21.05 -43.864 -34.614 8.386 -20.1 30.17 -32.248 49.328 -40.358" fill="#29649C"/><path d="M2854.26 820.628c12.17 3.15 20.042 8.878 29.57 16.678l4.182 3.332c6.266 5.032 12.198 10.108 17.818 15.866 -7.248 16.036 -21.086 25.878 -35.622 35.068 -4.852 3.022 -4.852 3.022 -9.548 6.798 -4.158 2.976 -4.158 2.976 -8.642 2.976l8.968 -26.906c1.198 -19.21 0.822 -35.884 -6.726 -53.812" fill="#29649C"/><path d="M2802.07 835.202c7.044 1.548 10.136 4.098 14.074 10.09 3.412 10.238 3.918 18.832 -0.7 28.728 -3.784 4.904 -3.784 4.904 -10.512 9.388 -6.76 0.762 -11.424 1.272 -17.938 0 -8.228 -6.618 -14.884 -13.468 -16.816 -24.104 1.368 -8.884 4.052 -13.406 10.126 -19.926 7.096 -4.874 13.358 -4.784 21.764 -4.178" fill="#28649C"/><path d="M2789.238 1295.964h4.484c0.888 9.312 0.114 15.442 -5.536 23.072 -11.496 12.844 -23.588 23.52 -39.308 30.74a684 684 0 0 1 4.87 -14.698c1.538 -4.542 2.91 -9.142 4.238 -13.752 5.582 -9.54 12.07 -12.91 21.66 -18.05 5.346 -2.654 5.346 -2.654 9.592 -7.314" fill="#F4F7FA"/><path d="m2793.722 661.434 8.968 4.484v56.054c-8.968 2.242 -8.968 2.242 -13.452 0 -0.13 -9.248 -0.21 -18.498 -0.28 -27.746l-0.112 -7.986 -0.044 -7.622 -0.072 -7.044c0.508 -5.654 0.508 -5.654 4.992 -10.14" fill="#B6BFC8"/><path d="m2606.502 854.004 7.366 0.036 7.948 0.022 8.37 0.056 8.394 0.032q10.304 0.04 20.612 0.11c1.262 4.344 1.262 4.344 2.242 8.968 -2.242 2.242 -2.242 2.242 -7.848 2.498l-7.366 -0.036 -7.948 -0.022 -8.368 -0.058 -8.396 -0.03q-10.308 -0.04 -20.612 -0.11c-1.26 -4.346 -1.26 -4.346 -2.242 -8.968 2.242 -2.242 2.242 -2.242 7.848 -2.498" fill="#C6CACE"/><path d="m2791.48 995.516 11.21 2.242v56.054l-11.21 2.242z" fill="#C3C7CC"/><path d="M2932.736 854.26h58.296l2.242 8.968c-2.242 2.242 -2.242 2.242 -7.848 2.498l-7.366 -0.036 -7.948 -0.022 -8.37 -0.058 -8.394 -0.03q-10.308 -0.04 -20.612 -0.11z" fill="#C6CACD"/><path d="m356.502 535.874 4.484 2.242 -67.264 67.264 -4.484 -2.242c20.726 -22.802 42.258 -44.26 65.022 -65.022z" fill="#123759"/></svg>